<svg width="293" height="175" viewBox="0 0 293 175" fill="none" xmlns="http://www.w3.org/2000/svg">
<path d="M122.333 39H64.3334C61.572 39 59.3334 41.2386 59.3334 44V50C59.3334 52.7614 61.572 55 64.3334 55H122.333C125.095 55 127.333 52.7614 127.333 50V44C127.333 41.2386 125.095 39 122.333 39Z" fill="#EFF1F3"/>
<path d="M242.333 69H184.333C181.572 69 179.333 71.2386 179.333 74V80C179.333 82.7614 181.572 85 184.333 85H242.333C245.095 85 247.333 82.7614 247.333 80V74C247.333 71.2386 245.095 69 242.333 69Z" fill="#EFF1F3"/>
<path d="M176.333 107H55.3334C52.572 107 50.3334 109.239 50.3334 112V117C50.3334 119.761 52.572 122 55.3334 122H176.333C179.095 122 181.333 119.761 181.333 117V112C181.333 109.239 179.095 107 176.333 107Z" fill="#EFF1F3"/>
<path d="M238.333 123H173.333C170.572 123 168.333 125.239 168.333 128V133C168.333 135.761 170.572 138 173.333 138H238.333C241.095 138 243.333 135.761 243.333 133V128C243.333 125.239 241.095 123 238.333 123Z" fill="#EFF1F3"/>
<path d="M146.061 138.12C174.26 138.12 197.121 115.26 197.121 87.0602C197.121 58.8605 174.26 36.0002 146.061 36.0002C117.861 36.0002 95.0005 58.8605 95.0005 87.0602C95.0005 115.26 117.861 138.12 146.061 138.12Z" fill="white"/>
<mask id="mask0_1_97" style="mask-type:luminance" maskUnits="userSpaceOnUse" x="109" y="51" width="75" height="74">
<path d="M183.333 51H109.333V125H183.333V51Z" fill="white"/>
</mask>
<g mask="url(#mask0_1_97)">
<path d="M146.331 54.6359C127.906 54.6359 112.964 69.5635 112.964 88.0008C112.964 106.435 127.906 121.364 146.331 121.364C164.773 121.364 179.709 106.435 179.709 88.0008C179.709 69.5635 164.773 54.6359 146.331 54.6359Z" fill="url(#paint0_linear_1_97)"/>
<path d="M174.019 88.0016C174.019 103.291 161.62 115.689 146.332 115.689C131.04 115.689 118.641 103.291 118.641 88.0016C118.641 72.7106 131.04 60.3137 146.332 60.3137C161.62 60.3137 174.019 72.7108 174.019 88.0016Z" fill="white"/>
<path d="M146.338 60.3137V87.9986H174.021C174.018 72.7099 161.624 60.3152 146.338 60.3137Z" fill="#DEEEFF"/>
<path d="M144.762 72.018H147.896V84.5577H144.762V72.018ZM149.775 86.435H162.31V89.5686H149.775V86.435Z" fill="#025ADE"/>
<path d="M152.126 87.9984C152.126 91.2029 149.531 93.7992 146.327 93.7992C143.123 93.7992 140.528 91.2029 140.528 87.9984C140.528 84.7936 143.123 82.2006 146.327 82.2006C149.531 82.2007 152.126 84.7938 152.126 87.9984Z" fill="#025ADE"/>
<path d="M148.996 87.9984C148.996 89.4715 147.802 90.6629 146.331 90.6629C144.86 90.6629 143.667 89.4715 143.667 87.9984C143.667 86.5281 144.86 85.3327 146.331 85.3327C147.802 85.3324 148.996 86.5278 148.996 87.9984Z" fill="white"/>
<path d="M147.897 87.9986C147.897 88.862 147.193 89.5681 146.33 89.5681C145.465 89.5681 144.762 88.8624 144.762 87.9986C144.762 87.1359 145.465 86.4341 146.33 86.4341C147.193 86.4341 147.897 87.136 147.897 87.9986Z" fill="#DEEEFF"/>
<path d="M146.332 66.0333C145.468 66.0333 144.762 65.3325 144.762 64.4668C144.762 63.5998 145.468 62.8987 146.332 62.8987C147.194 62.8987 147.897 63.5999 147.897 64.4668C147.897 65.3325 147.194 66.0333 146.332 66.0333ZM135.346 68.9765C134.595 69.4074 133.639 69.1527 133.205 68.4028C132.77 67.6523 133.031 66.6942 133.781 66.262C134.527 65.8307 135.487 66.0848 135.918 66.8347C136.353 67.5855 136.092 68.5446 135.346 68.9765ZM127.303 77.0173C126.874 77.7665 125.914 78.0243 125.163 77.59C124.414 77.1575 124.159 76.1974 124.589 75.4495C125.022 74.702 125.981 74.4443 126.731 74.8755C127.48 75.3096 127.736 76.2697 127.303 77.0173ZM124.359 88.0016C124.361 88.8636 123.66 89.5691 122.794 89.5678C121.925 89.5678 121.227 88.8639 121.227 88.0016C121.227 87.1388 121.929 86.4342 122.794 86.4342C123.66 86.434 124.359 87.1388 124.359 88.0016ZM127.303 98.9862C127.738 99.7341 127.482 100.694 126.731 101.128C125.981 101.561 125.022 101.301 124.589 100.552C124.159 99.8035 124.414 98.8442 125.163 98.4129C125.914 97.9791 126.872 98.2356 127.303 98.9862ZM135.346 107.03C136.095 107.456 136.353 108.418 135.918 109.167C135.485 109.918 134.528 110.173 133.781 109.741C133.031 109.307 132.769 108.348 133.206 107.6C133.639 106.85 134.596 106.595 135.346 107.03ZM146.331 109.973C147.194 109.971 147.897 110.669 147.897 111.538C147.897 112.406 147.194 113.103 146.332 113.105C145.468 113.103 144.762 112.404 144.762 111.538C144.762 110.67 145.463 109.972 146.331 109.973ZM157.317 107.03C158.064 106.594 159.023 106.848 159.454 107.6C159.884 108.351 159.624 109.307 158.887 109.741C158.137 110.174 157.177 109.918 156.742 109.167C156.309 108.418 156.569 107.458 157.317 107.03ZM165.354 98.9862C165.784 98.2356 166.74 97.9791 167.493 98.4149C168.243 98.8461 168.499 99.8035 168.072 100.551C167.97 100.729 167.834 100.886 167.67 101.011C167.507 101.137 167.321 101.229 167.122 101.283C166.923 101.337 166.715 101.35 166.511 101.324C166.307 101.297 166.11 101.231 165.931 101.127C165.183 100.694 164.922 99.7348 165.354 98.9862ZM168.297 88.0025C168.297 87.1388 168.996 86.434 169.865 86.4366C170.734 86.434 171.433 87.1387 171.433 88.0011C171.433 88.8638 170.733 89.5679 169.865 89.5679C168.996 89.5678 168.297 88.8652 168.297 88.0025ZM165.354 77.018C164.922 76.2697 165.179 75.3119 165.931 74.8761C166.686 74.4446 167.641 74.7023 168.069 75.4492C168.499 76.1975 168.243 77.1576 167.501 77.59C166.743 78.0224 165.788 77.7678 165.354 77.018ZM157.317 68.9765C156.569 68.5446 156.308 67.5872 156.742 66.8349C157.181 66.0847 158.137 65.8311 158.879 66.2597C159.623 66.6946 159.884 67.6529 159.454 68.4028C159.028 69.1517 158.065 69.4074 157.317 68.9765Z" fill="#025ADE"/>
</g>
<path d="M250.111 117.421L242.311 108.755C242.145 108.571 241.913 108.467 241.666 108.467H236.467C236.299 108.467 236.136 108.516 235.995 108.607C235.854 108.698 235.743 108.828 235.675 108.98C235.536 109.294 235.593 109.66 235.822 109.913L243.1 118L235.822 126.086C235.593 126.34 235.534 126.706 235.675 127.018C235.815 127.332 236.125 127.533 236.467 127.533H241.666C241.913 127.533 242.145 127.427 242.311 127.247L250.111 118.581C250.407 118.251 250.407 117.749 250.111 117.421Z" fill="url(#paint1_linear_1_97)"/>
<path d="M250.111 117.421L242.311 108.755C242.145 108.571 241.913 108.467 241.666 108.467H236.467C236.299 108.467 236.136 108.516 235.995 108.607C235.854 108.698 235.743 108.828 235.675 108.98C235.536 109.294 235.593 109.66 235.822 109.913L243.1 118L235.822 126.086C235.593 126.34 235.534 126.706 235.675 127.018C235.815 127.332 236.125 127.533 236.467 127.533H241.666C241.913 127.533 242.145 127.427 242.311 127.247L250.111 118.581C250.407 118.251 250.407 117.749 250.111 117.421Z" fill="url(#paint2_linear_1_97)"/>
<path d="M238.845 117.421L231.045 108.755C230.879 108.571 230.646 108.467 230.4 108.467H225.201C225.033 108.467 224.869 108.516 224.729 108.607C224.588 108.698 224.477 108.828 224.409 108.98C224.27 109.294 224.327 109.66 224.556 109.913L231.834 118L224.556 126.086C224.327 126.34 224.268 126.706 224.409 127.018C224.549 127.332 224.859 127.533 225.201 127.533H230.4C230.646 127.533 230.879 127.427 231.045 127.247L238.845 118.581C239.141 118.251 239.141 117.749 238.845 117.421Z" fill="url(#paint3_linear_1_97)"/>
<path d="M238.845 117.421L231.045 108.755C230.879 108.571 230.646 108.467 230.4 108.467H225.201C225.033 108.467 224.869 108.516 224.729 108.607C224.588 108.698 224.477 108.828 224.409 108.98C224.27 109.294 224.327 109.66 224.556 109.913L231.834 118L224.556 126.086C224.327 126.34 224.268 126.706 224.409 127.018C224.549 127.332 224.859 127.533 225.201 127.533H230.4C230.646 127.533 230.879 127.427 231.045 127.247L238.845 118.581C239.141 118.251 239.141 117.749 238.845 117.421Z" fill="url(#paint4_linear_1_97)"/>
<path d="M69.1112 65.4211L61.3116 56.7549C61.1452 56.5712 60.9129 56.4672 60.6668 56.4672H55.4671C55.2997 56.4673 55.1359 56.5159 54.9954 56.6069C54.8549 56.6979 54.7436 56.8275 54.675 56.9802C54.5364 57.2939 54.5936 57.6596 54.8223 57.9127L62.1002 66L54.8223 74.0855C54.5936 74.3403 54.5346 74.706 54.675 75.018C54.8154 75.3317 55.1257 75.5328 55.4671 75.5328H60.6668C60.9129 75.5328 61.1452 75.4271 61.3116 75.2468L69.1112 66.5806C69.4076 66.2513 69.4076 65.7487 69.1112 65.4211Z" fill="url(#paint5_linear_1_97)"/>
<path d="M69.1112 65.4211L61.3116 56.7549C61.1452 56.5712 60.9129 56.4672 60.6668 56.4672H55.4671C55.2997 56.4673 55.1359 56.5159 54.9954 56.6069C54.8549 56.6979 54.7436 56.8275 54.675 56.9802C54.5364 57.2939 54.5936 57.6596 54.8223 57.9127L62.1002 66L54.8223 74.0855C54.5936 74.3403 54.5346 74.706 54.675 75.018C54.8154 75.3317 55.1257 75.5328 55.4671 75.5328H60.6668C60.9129 75.5328 61.1452 75.4271 61.3116 75.2468L69.1112 66.5806C69.4076 66.2513 69.4076 65.7487 69.1112 65.4211Z" fill="url(#paint6_linear_1_97)"/>
<path d="M57.8451 65.4211L50.0455 56.7549C49.8791 56.5712 49.6468 56.4672 49.4007 56.4672H44.201C44.0336 56.4673 43.8698 56.5159 43.7293 56.6069C43.5888 56.6979 43.4775 56.8275 43.4089 56.9802C43.2702 57.2939 43.3274 57.6596 43.5562 57.9127L50.8341 66L43.5562 74.0855C43.3274 74.3403 43.2685 74.706 43.4089 75.018C43.5493 75.3317 43.8595 75.5328 44.201 75.5328H49.4007C49.6468 75.5328 49.8791 75.4271 50.0455 75.2468L57.8451 66.5806C58.1414 66.2513 58.1414 65.7487 57.8451 65.4211Z" fill="url(#paint7_linear_1_97)"/>
<path d="M57.8451 65.4211L50.0455 56.7549C49.8791 56.5712 49.6468 56.4672 49.4007 56.4672H44.201C44.0336 56.4673 43.8698 56.5159 43.7293 56.6069C43.5888 56.6979 43.4775 56.8275 43.4089 56.9802C43.2702 57.2939 43.3274 57.6596 43.5562 57.9127L50.8341 66L43.5562 74.0855C43.3274 74.3403 43.2685 74.706 43.4089 75.018C43.5493 75.3317 43.8595 75.5328 44.201 75.5328H49.4007C49.6468 75.5328 49.8791 75.4271 50.0455 75.2468L57.8451 66.5806C58.1414 66.2513 58.1414 65.7487 57.8451 65.4211Z" fill="url(#paint8_linear_1_97)"/>
<defs>
<linearGradient id="paint0_linear_1_97" x1="179.709" y1="54.6359" x2="147.847" y2="115.308" gradientUnits="userSpaceOnUse">
<stop stop-color="#025ADE"/>
<stop offset="1" stop-color="#619CF5"/>
</linearGradient>
<linearGradient id="paint1_linear_1_97" x1="242.966" y1="108.467" x2="242.966" y2="127.533" gradientUnits="userSpaceOnUse">
<stop stop-color="#9655CE"/>
<stop offset="1" stop-color="#9655CE" stop-opacity="0"/>
</linearGradient>
<linearGradient id="paint2_linear_1_97" x1="250.333" y1="108.467" x2="240.051" y2="123.594" gradientUnits="userSpaceOnUse">
<stop stop-color="#025ADE"/>
<stop offset="1" stop-color="#619CF5"/>
</linearGradient>
<linearGradient id="paint3_linear_1_97" x1="231.7" y1="108.467" x2="231.7" y2="127.533" gradientUnits="userSpaceOnUse">
<stop stop-color="#9655CE"/>
<stop offset="1" stop-color="#9655CE" stop-opacity="0"/>
</linearGradient>
<linearGradient id="paint4_linear_1_97" x1="239.067" y1="108.467" x2="228.785" y2="123.594" gradientUnits="userSpaceOnUse">
<stop stop-color="#025ADE"/>
<stop offset="1" stop-color="#619CF5"/>
</linearGradient>
<linearGradient id="paint5_linear_1_97" x1="61.9665" y1="56.4672" x2="61.9665" y2="75.5328" gradientUnits="userSpaceOnUse">
<stop stop-color="#9655CE"/>
<stop offset="1" stop-color="#9655CE" stop-opacity="0"/>
</linearGradient>
<linearGradient id="paint6_linear_1_97" x1="69.3335" y1="56.4672" x2="59.0512" y2="71.5942" gradientUnits="userSpaceOnUse">
<stop stop-color="#025ADE"/>
<stop offset="1" stop-color="#619CF5"/>
</linearGradient>
<linearGradient id="paint7_linear_1_97" x1="50.7004" y1="56.4672" x2="50.7004" y2="75.5328" gradientUnits="userSpaceOnUse">
<stop stop-color="#9655CE"/>
<stop offset="1" stop-color="#9655CE" stop-opacity="0"/>
</linearGradient>
<linearGradient id="paint8_linear_1_97" x1="58.0673" y1="56.4672" x2="47.7851" y2="71.5942" gradientUnits="userSpaceOnUse">
<stop stop-color="#025ADE"/>
<stop offset="1" stop-color="#619CF5"/>
</linearGradient>
</defs>
</svg>
