<svg width="291" height="175" viewBox="0 0 291 175" fill="none" xmlns="http://www.w3.org/2000/svg">
<path d="M122 39H64C61.2386 39 59 41.2386 59 44V50C59 52.7614 61.2386 55 64 55H122C124.761 55 127 52.7614 127 50V44C127 41.2386 124.761 39 122 39Z" fill="#EFF1F3"/>
<path d="M242 69H184C181.239 69 179 71.2386 179 74V80C179 82.7614 181.239 85 184 85H242C244.761 85 247 82.7614 247 80V74C247 71.2386 244.761 69 242 69Z" fill="#EFF1F3"/>
<path d="M176 107H55C52.2386 107 50 109.239 50 112V117C50 119.761 52.2386 122 55 122H176C178.761 122 181 119.761 181 117V112C181 109.239 178.761 107 176 107Z" fill="#EFF1F3"/>
<path d="M238 123H173C170.239 123 168 125.239 168 128V133C168 135.761 170.239 138 173 138H238C240.761 138 243 135.761 243 133V128C243 125.239 240.761 123 238 123Z" fill="#EFF1F3"/>
<g filter="url(#filter0_d_1_58)">
<path d="M145.06 133.12C170.498 133.12 191.12 112.499 191.12 87.0602C191.12 61.6219 170.498 41 145.06 41C119.622 41 98.9998 61.6219 98.9998 87.0602C98.9998 112.499 119.622 133.12 145.06 133.12Z" fill="white"/>
<path d="M189.681 87.0602C189.681 111.704 169.704 131.681 145.06 131.681C120.417 131.681 100.439 111.704 100.439 87.0602C100.439 62.4168 120.417 42.4394 145.06 42.4394C169.704 42.4394 189.681 62.4168 189.681 87.0602Z" stroke="white" stroke-width="2.87876"/>
</g>
<path d="M224.445 114.733L220.285 113.541C218.411 113.012 216.704 112.01 215.328 110.63C213.951 109.251 212.951 107.54 212.423 105.663L211.234 101.493C211.174 101.347 211.073 101.223 210.942 101.135C210.811 101.047 210.657 101 210.5 101C210.343 101 210.189 101.047 210.058 101.135C209.927 101.223 209.826 101.347 209.766 101.493L208.577 105.663C208.049 107.54 207.049 109.251 205.672 110.63C204.296 112.01 202.589 113.012 200.715 113.541L196.555 114.733C196.395 114.778 196.254 114.875 196.154 115.008C196.054 115.14 196 115.302 196 115.469C196 115.635 196.054 115.797 196.154 115.93C196.254 116.062 196.395 116.159 196.555 116.204L200.715 117.396C202.589 117.925 204.296 118.928 205.672 120.307C207.049 121.686 208.049 123.397 208.577 125.275L209.766 129.444C209.811 129.604 209.907 129.745 210.04 129.845C210.172 129.946 210.334 130 210.5 130C210.666 130 210.828 129.946 210.96 129.845C211.093 129.745 211.189 129.604 211.234 129.444L212.423 125.275C212.951 123.397 213.951 121.686 215.328 120.307C216.704 118.928 218.411 117.925 220.285 117.396L224.445 116.204C224.605 116.159 224.746 116.062 224.846 115.93C224.946 115.797 225 115.635 225 115.469C225 115.302 224.946 115.14 224.846 115.008C224.746 114.875 224.605 114.778 224.445 114.733Z" fill="url(#paint0_linear_1_58)"/>
<path d="M224.445 114.733L220.285 113.541C218.411 113.012 216.704 112.01 215.328 110.63C213.951 109.251 212.951 107.54 212.423 105.663L211.234 101.493C211.174 101.347 211.073 101.223 210.942 101.135C210.811 101.047 210.657 101 210.5 101C210.343 101 210.189 101.047 210.058 101.135C209.927 101.223 209.826 101.347 209.766 101.493L208.577 105.663C208.049 107.54 207.049 109.251 205.672 110.63C204.296 112.01 202.589 113.012 200.715 113.541L196.555 114.733C196.395 114.778 196.254 114.875 196.154 115.008C196.054 115.14 196 115.302 196 115.469C196 115.635 196.054 115.797 196.154 115.93C196.254 116.062 196.395 116.159 196.555 116.204L200.715 117.396C202.589 117.925 204.296 118.928 205.672 120.307C207.049 121.686 208.049 123.397 208.577 125.275L209.766 129.444C209.811 129.604 209.907 129.745 210.04 129.845C210.172 129.946 210.334 130 210.5 130C210.666 130 210.828 129.946 210.96 129.845C211.093 129.745 211.189 129.604 211.234 129.444L212.423 125.275C212.951 123.397 213.951 121.686 215.328 120.307C216.704 118.928 218.411 117.925 220.285 117.396L224.445 116.204C224.605 116.159 224.746 116.062 224.846 115.93C224.946 115.797 225 115.635 225 115.469C225 115.302 224.946 115.14 224.846 115.008C224.746 114.875 224.605 114.778 224.445 114.733Z" fill="url(#paint1_linear_1_58)"/>
<path d="M82.6557 54.5239L80.0733 53.7843C78.9104 53.4557 77.851 52.8336 76.9967 51.9774C76.1423 51.1211 75.5215 50.0595 75.1936 48.8941L74.4557 46.3061C74.4185 46.2155 74.3554 46.1381 74.2743 46.0836C74.1931 46.0291 74.0977 46 74 46C73.9023 46 73.8069 46.0291 73.7257 46.0836C73.6446 46.1381 73.5815 46.2155 73.5443 46.3061L72.8064 48.8941C72.4785 50.0595 71.8577 51.1211 71.0033 51.9774C70.149 52.8336 69.0896 53.4557 67.9267 53.7843L65.3443 54.5239C65.2452 54.5521 65.1579 54.6119 65.0958 54.6943C65.0336 54.7767 65 54.8772 65 54.9805C65 55.0838 65.0336 55.1843 65.0958 55.2667C65.1579 55.3491 65.2452 55.409 65.3443 55.4372L67.9267 56.1767C69.0896 56.5053 70.149 57.1274 71.0033 57.9837C71.8577 58.8399 72.4785 59.9015 72.8064 61.0669L73.5443 63.6549C73.5725 63.7543 73.6322 63.8418 73.7144 63.904C73.7967 63.9663 73.8969 64 74 64C74.1031 64 74.2033 63.9663 74.2856 63.904C74.3678 63.8418 74.4275 63.7543 74.4557 63.6549L75.1936 61.0669C75.5215 59.9015 76.1423 58.8399 76.9967 57.9837C77.851 57.1274 78.9104 56.5053 80.0733 56.1767L82.6557 55.4372C82.7548 55.409 82.8421 55.3491 82.9042 55.2667C82.9664 55.1843 83 55.0838 83 54.9805C83 54.8772 82.9664 54.7767 82.9042 54.6943C82.8421 54.6119 82.7548 54.5521 82.6557 54.5239Z" fill="url(#paint2_linear_1_58)"/>
<path d="M82.6557 54.5239L80.0733 53.7843C78.9104 53.4557 77.851 52.8336 76.9967 51.9774C76.1423 51.1211 75.5215 50.0595 75.1936 48.8941L74.4557 46.3061C74.4185 46.2155 74.3554 46.1381 74.2743 46.0836C74.1931 46.0291 74.0977 46 74 46C73.9023 46 73.8069 46.0291 73.7257 46.0836C73.6446 46.1381 73.5815 46.2155 73.5443 46.3061L72.8064 48.8941C72.4785 50.0595 71.8577 51.1211 71.0033 51.9774C70.149 52.8336 69.0896 53.4557 67.9267 53.7843L65.3443 54.5239C65.2452 54.5521 65.1579 54.6119 65.0958 54.6943C65.0336 54.7767 65 54.8772 65 54.9805C65 55.0838 65.0336 55.1843 65.0958 55.2667C65.1579 55.3491 65.2452 55.409 65.3443 55.4372L67.9267 56.1767C69.0896 56.5053 70.149 57.1274 71.0033 57.9837C71.8577 58.8399 72.4785 59.9015 72.8064 61.0669L73.5443 63.6549C73.5725 63.7543 73.6322 63.8418 73.7144 63.904C73.7967 63.9663 73.8969 64 74 64C74.1031 64 74.2033 63.9663 74.2856 63.904C74.3678 63.8418 74.4275 63.7543 74.4557 63.6549L75.1936 61.0669C75.5215 59.9015 76.1423 58.8399 76.9967 57.9837C77.851 57.1274 78.9104 56.5053 80.0733 56.1767L82.6557 55.4372C82.7548 55.409 82.8421 55.3491 82.9042 55.2667C82.9664 55.1843 83 55.0838 83 54.9805C83 54.8772 82.9664 54.7767 82.9042 54.6943C82.8421 54.6119 82.7548 54.5521 82.6557 54.5239Z" fill="url(#paint3_linear_1_58)"/>
<path d="M128.548 103H121.079L132.46 70.0303H141.443L152.809 103H145.339L137.08 77.5644H136.823L128.548 103ZM128.081 90.0407H145.725V95.482H128.081V90.0407ZM163.748 70.0303V103H156.777V70.0303H163.748Z" fill="url(#paint4_linear_1_58)"/>
<defs>
<filter id="filter0_d_1_58" x="75.9696" y="17.97" width="138.181" height="138.18" filterUnits="userSpaceOnUse" color-interpolation-filters="sRGB">
<feFlood flood-opacity="0" result="BackgroundImageFix"/>
<feColorMatrix in="SourceAlpha" type="matrix" values="0 0 0 0 0 0 0 0 0 0 0 0 0 0 0 0 0 0 127 0" result="hardAlpha"/>
<feOffset/>
<feGaussianBlur stdDeviation="11.515"/>
<feComposite in2="hardAlpha" operator="out"/>
<feColorMatrix type="matrix" values="0 0 0 0 0 0 0 0 0 0 0 0 0 0 0 0 0 0 0.15 0"/>
<feBlend mode="normal" in2="BackgroundImageFix" result="effect1_dropShadow_1_58"/>
<feBlend mode="normal" in="SourceGraphic" in2="effect1_dropShadow_1_58" result="shape"/>
</filter>
<linearGradient id="paint0_linear_1_58" x1="210.5" y1="101" x2="210.5" y2="130" gradientUnits="userSpaceOnUse">
<stop stop-color="#9655CE"/>
<stop offset="1" stop-color="#9655CE" stop-opacity="0"/>
</linearGradient>
<linearGradient id="paint1_linear_1_58" x1="225" y1="101" x2="211.151" y2="127.365" gradientUnits="userSpaceOnUse">
<stop stop-color="#025ADE"/>
<stop offset="1" stop-color="#619CF5"/>
</linearGradient>
<linearGradient id="paint2_linear_1_58" x1="74" y1="46" x2="74" y2="64" gradientUnits="userSpaceOnUse">
<stop stop-color="#9655CE"/>
<stop offset="1" stop-color="#9655CE" stop-opacity="0"/>
</linearGradient>
<linearGradient id="paint3_linear_1_58" x1="83" y1="46" x2="74.4038" y2="62.3645" gradientUnits="userSpaceOnUse">
<stop stop-color="#025ADE"/>
<stop offset="1" stop-color="#619CF5"/>
</linearGradient>
<linearGradient id="paint4_linear_1_58" x1="167" y1="53" x2="129" y2="103" gradientUnits="userSpaceOnUse">
<stop stop-color="#025ADE"/>
<stop offset="1" stop-color="#619CF5"/>
</linearGradient>
</defs>
</svg>
