<?xml version="1.0" encoding="utf-8"?>
<!-- Generator: Adobe Illustrator 25.4.1, SVG Export Plug-In . SVG Version: 6.00 Build 0)  -->
<svg version="1.1" id="Capa_1" xmlns="http://www.w3.org/2000/svg" xmlns:xlink="http://www.w3.org/1999/xlink" x="0px" y="0px"
	 viewBox="0 0 450 300" style="enable-background:new 0 0 450 300;" xml:space="preserve">
<style type="text/css">
	.st0{fill:#BAD6EB;}
	.st1{fill:#D0E4FF;}
	.st2{fill:#457B9D;}
	.st3{fill:#6F96D1;}
	.st4{fill:#1D3557;}
	.st5{fill:#035BDD;}
	.st6{opacity:0.31;}
	.st7{opacity:0.21;}
	.st8{fill:#14253A;}
	.st9{fill:none;stroke:#1D1D1B;stroke-miterlimit:10;}
	.st10{fill:#1D1D1B;}
	.st11{fill:none;}
	.st12{fill:#E7F7F7;}
	.st13{opacity:0.19;}
	.st14{fill:#F0FAEE;}
	.st15{fill:none;stroke:#035BDD;stroke-width:10;stroke-miterlimit:10;}
</style>
<g>
	<g>
		<g>
			<g>
				<path class="st0" d="M140.19,236.68c0,0-46.66-72.33-40.56-90.34c4.71-13.9,17.28-18.19,46.15-8.55c0,0-22.43-37.19-5.59-66.48
					s54.36-3.59,54.36-3.59s0.15-53.51,32.43-53.96s43.94,42.75,43.5,59.19c0,0,17.04-23.77,36.47-3.59
					c19.43,20.18-4.19,59.34-4.19,59.34s27.95-19.28,39.31-5.98c11.36,13.3-20.33,92.52-42.08,111.65
					c-21.75,19.13-30.62,37.74-30.62,37.74l-113.49,6.8l-10.82-7.36L140.19,236.68z"/>
			</g>
		</g>
	</g>
	<g>
		<g>
			<g>
				<ellipse class="st1" cx="219.75" cy="276.15" rx="121.07" ry="10.09"/>
			</g>
		</g>
	</g>
	<g>
		<g>
			<g>
				<path class="st2" d="M305.39,215.84c0,0,20.51-7.29,23.99-17.26c3.48-9.98,12.44-17.26,19.51-16.25
					c7.06,1.01,8.86,0.9,13.23-2.69c4.37-3.59,11.43-2.86,15.02-0.98s3.36,10.55-3.59,17.81s-19.62,19.49-17.49,29.02
					c2.13,9.53,3.14,25.78-13,31.95c-16.14,6.17-28.31,3.14-28.31,3.14L298,245.77v-21.93L305.39,215.84z"/>
			</g>
		</g>
	</g>
	<g>
		<g>
			<g>
				<path class="st2" d="M143.07,211.17c0,0-14.91-6.88-17.04-12.7c-2.13-5.83-11.55-20.18-12.22-21.64
					c-0.67-1.46-9.42-9.42-13.9-10.87c-2.6-0.85-6.49-3.96-9.3-6.42c-2.97-2.61-6.89-3.94-10.83-3.58
					c-1.18,0.11-2.19,0.35-2.74,0.81c-2.02,1.68-8.52,19.77-5.83,27.09s10.76,13.6,14.12,17.64c3.36,4.04,5.16,7.96,5.61,13.79
					c0.45,5.83,4.26,19.06,7.73,23.2c3.48,4.15,10.76,5.38,11.99,8.07c1.23,2.69,6.73,5.61,6.73,5.61l3.05,2.44l19.82-5.24
					l12.11-12.44l8.97-10.24C161.34,226.68,146.54,213.35,143.07,211.17z"/>
			</g>
		</g>
	</g>
	<g>
		<g>
			<g>
				<path class="st0" d="M377.74,179.07l-4.8,3.23c-1.6,1.08-3.19,2.17-4.77,3.26c-3.18,2.17-6.34,4.38-9.47,6.62
					c-3.12,2.26-6.25,4.5-9.31,6.84c-1.53,1.16-3.04,2.36-4.54,3.56c-1.49,1.21-2.96,2.45-4.39,3.73c-1.43,1.27-2.82,2.59-4.08,4.01
					c-0.16,0.17-0.31,0.36-0.46,0.54l-0.46,0.55l-0.91,1.11l-1.75,2.28c-2.3,3.08-4.43,6.28-6.56,9.49
					c-2.12,3.22-4.16,6.48-6.17,9.77c-2.03,3.28-4,6.59-5.95,9.91l-0.04-0.02c1.87-3.37,3.8-6.71,5.77-10.02
					c1.97-3.31,3.99-6.6,6.07-9.84c2.09-3.24,4.23-6.45,6.52-9.55l1.75-2.3l0.92-1.12l0.46-0.56c0.15-0.19,0.3-0.38,0.47-0.55
					c1.28-1.45,2.68-2.78,4.11-4.07c1.44-1.28,2.92-2.52,4.42-3.73c1.51-1.2,3.02-2.39,4.56-3.55c3.07-2.33,6.2-4.58,9.36-6.79
					c6.32-4.42,12.74-8.69,19.24-12.83L377.74,179.07z"/>
			</g>
		</g>
	</g>
	<g>
		<g>
			<g>
				<path class="st0" d="M357.18,182.56c-0.25,1.11-0.54,2.21-0.81,3.32l-0.21,0.83l-0.22,0.82l-0.44,1.65
					c-0.3,1.1-0.58,2.2-0.9,3.29c-0.31,1.09-0.61,2.19-0.94,3.28l-0.37-0.56l2.38,0.26l2.37,0.28c1.58,0.18,3.16,0.4,4.74,0.6
					l4.73,0.68c0.39,0.05,0.79,0.12,1.18,0.18l1.18,0.19l1.18,0.19l1.18,0.21l-0.01,0.05l-9.5-1.08l-9.5-1.09l-0.05-0.01l0.02-0.05
					l3.93-13.08L357.18,182.56z"/>
			</g>
		</g>
	</g>
	<g>
		<g>
			<g>
				<path class="st0" d="M338.1,186.1l-0.11,1.56l-0.13,1.56l-0.26,3.13l-0.6,6.24l-0.15,1.56l-0.17,1.56l-0.34,3.12l-0.68,6.23
					l-0.38-0.5l5.87,0.85c1.95,0.29,3.91,0.55,5.86,0.87l5.85,0.93l2.92,0.5l1.46,0.25l1.46,0.26l-0.01,0.05l-23.49-3.21l-0.05-0.01
					l0.01-0.05l2.88-24.91L338.1,186.1z"/>
			</g>
		</g>
	</g>
	<g>
		<g>
			<g>
				<path class="st0" d="M320.11,202.95c0.32,2.15,0.6,4.31,0.89,6.46c0.15,1.08,0.28,2.16,0.42,3.24l0.4,3.24
					c0.27,2.16,0.55,4.31,0.79,6.48l0.74,6.48l-0.36-0.38l4.29,0.62l4.28,0.66l8.57,1.32l8.55,1.41c1.43,0.23,2.85,0.49,4.27,0.74
					l2.14,0.37l2.13,0.39l-0.01,0.05l-34.3-5.1l-0.04-0.01l0-0.04l-2.82-25.94L320.11,202.95z"/>
			</g>
		</g>
	</g>
	<g>
		<g>
			<g>
				<path class="st0" d="M301.23,220.35c1.14,1.85,2.25,3.71,3.37,5.57l0.84,1.39l0.83,1.4l1.65,2.8l1.65,2.8l0.83,1.4l0.81,1.41
					l3.25,5.64l-0.27-0.2l4.73,1.05c1.58,0.35,3.15,0.73,4.72,1.09l9.43,2.2l9.41,2.28c1.57,0.37,3.13,0.78,4.7,1.18l2.35,0.59
					l2.34,0.61l-0.01,0.05l-37.78-8.59l-0.02,0l-0.01-0.02l-12.85-22.62L301.23,220.35z"/>
			</g>
		</g>
	</g>
	<g>
		<g>
			<g>
				<path class="st0" d="M77.4,156.22c0.27,1.06,0.6,2.1,0.95,3.14c0.35,1.04,0.73,2.06,1.13,3.08c0.4,1.02,0.83,2.02,1.29,3.01
					c0.46,0.99,0.93,1.98,1.44,2.94c1,1.94,2.11,3.82,3.32,5.63c1.21,1.81,2.54,3.54,3.97,5.17c0.18,0.21,0.36,0.41,0.55,0.61
					l0.55,0.6c0.38,0.39,0.76,0.78,1.14,1.16l2.33,2.32c0.77,0.78,1.55,1.55,2.31,2.34c0.77,0.78,1.53,1.57,2.29,2.36
					c0.76,0.79,1.51,1.59,2.27,2.39c0.74,0.81,1.5,1.61,2.22,2.43c1.47,1.63,2.89,3.31,4.27,5.03l1.01,1.3l0.98,1.33
					c0.33,0.44,0.64,0.89,0.96,1.35c0.31,0.45,0.64,0.9,0.93,1.36l0.9,1.38l0.86,1.41c0.29,0.47,0.56,0.95,0.83,1.43
					c0.27,0.48,0.55,0.95,0.8,1.45l0.77,1.46l0.38,0.71l0.19,0.36l0.21,0.35l0.41,0.7l0.44,0.68c0.29,0.46,0.61,0.9,0.91,1.35
					c0.32,0.44,0.64,0.88,0.96,1.32c0.33,0.43,0.66,0.87,1,1.29c0.67,0.86,1.36,1.7,2.07,2.53c2.82,3.33,5.85,6.49,8.96,9.58
					c3.09,3.1,6.29,6.1,9.54,9.03l-0.03,0.04c-3.32-2.86-6.54-5.83-9.69-8.88c-3.14-3.06-6.2-6.2-9.07-9.51
					c-1.43-1.66-2.82-3.36-4.09-5.15c-0.31-0.45-0.64-0.89-0.93-1.36l-0.45-0.69l-0.42-0.71c-0.56-0.95-1.05-1.93-1.56-2.89
					c-0.25-0.49-0.53-0.96-0.8-1.43c-0.27-0.47-0.54-0.95-0.83-1.42l-0.86-1.4l-0.9-1.37c-0.29-0.46-0.62-0.9-0.93-1.35
					c-0.31-0.45-0.62-0.9-0.96-1.33l-0.98-1.32l-1.01-1.29c-1.36-1.71-2.77-3.39-4.23-5.02c-0.72-0.82-1.47-1.62-2.21-2.43
					c-0.75-0.8-1.49-1.6-2.25-2.39c-0.76-0.79-1.52-1.58-2.28-2.36c-0.76-0.79-1.53-1.56-2.3-2.34c-1.53-1.57-3.13-3.07-4.55-4.74
					c-1.43-1.66-2.75-3.42-3.95-5.25c-1.2-1.84-2.3-3.74-3.28-5.7c-0.5-0.98-0.96-1.97-1.4-2.97c-0.44-1-0.86-2.02-1.24-3.04
					c-0.77-2.05-1.46-4.13-1.97-6.27L77.4,156.22z"/>
			</g>
		</g>
	</g>
	<g>
		<g>
			<g>
				<path class="st0" d="M70.84,175.56l1.08,0.08l1.08,0.1l2.15,0.19l4.29,0.46l1.07,0.11l1.07,0.13l2.14,0.26l4.28,0.56l-0.49,0.31
					l1.3-4.06c0.45-1.35,0.88-2.71,1.35-4.05l1.39-4.04l0.73-2.01l0.37-1l0.38-1l0.05,0.02l-5.09,16.29l-0.01,0.04l-0.04-0.01
					l-17.1-2.33L70.84,175.56z"/>
			</g>
		</g>
	</g>
	<g>
		<g>
			<g>
				<path class="st0" d="M81.22,197.18l1.41-0.21l1.41-0.19l2.82-0.39l5.65-0.7l1.41-0.18l1.41-0.16l2.83-0.31l5.66-0.62l-0.39,0.32
					l1.62-5.44l0.81-2.72c0.14-0.45,0.27-0.91,0.41-1.36l0.42-1.35l1.7-5.42l0.88-2.7l0.44-1.35l0.46-1.35l0.05,0.01l-6.31,21.82
					l-0.01,0.03l-0.03,0l-22.65,2.31L81.22,197.18z"/>
			</g>
		</g>
	</g>
	<g>
		<g>
			<g>
				<path class="st0" d="M90.85,214.22l1.74,0.06l1.74,0.08c1.16,0.06,2.32,0.1,3.47,0.17l3.47,0.2l1.73,0.1l0.87,0.05l0.87,0.06
					l6.93,0.5c2.31,0.15,4.62,0.38,6.93,0.57l-0.44,0.32l1.1-4.42c0.37-1.47,0.77-2.94,1.16-4.41c0.39-1.47,0.76-2.94,1.18-4.4
					c0.41-1.46,0.81-2.93,1.24-4.39l0.05,0.01l-4.27,17.71l-0.01,0.04l-0.04,0l-13.85-1.1l-13.85-1.11L90.85,214.22z"/>
			</g>
		</g>
	</g>
	<g>
		<g>
			<g>
				<path class="st0" d="M98.68,238.46l2.23-0.35l2.23-0.34c1.49-0.22,2.98-0.46,4.47-0.66c2.98-0.42,5.97-0.85,8.95-1.25l8.96-1.17
					c2.99-0.4,5.98-0.75,8.97-1.11l-0.35,0.29l1.87-5.84c0.31-0.97,0.63-1.94,0.96-2.91l0.97-2.91l0.97-2.91l0.48-1.45l0.5-1.45
					c0.67-1.93,1.32-3.87,2.01-5.8l0.05,0.02l-7.36,23.4l-0.01,0.03l-0.03,0l-35.87,4.46L98.68,238.46z"/>
			</g>
		</g>
	</g>
	<g>
		<g>
			<g>
				<path class="st3" d="M304.35,243.73c0,0,15.47-4.35,21.3,1.86c5.83,6.2,6.95,13.23,6.95,13.23s13.53-4.04,18.31,5.16
					c0,0,15.02-0.67,16.22,3.81c1.2,4.48-3.59,4.41-3.59,4.41s-17.94,5.38-23.69,3.96c-5.75-1.42-67.93-6.33-67.93-6.33l-9.64-1.82
					L304.35,243.73z"/>
			</g>
		</g>
	</g>
	<g>
		<g>
			<g>
				<path class="st3" d="M138.79,246.26c0,0-10.66-1.57-15.44,6.35c0,0-2.69,1.27-6.28,1.12c-3.59-0.15-17.71-0.52-23.24,7.03
					c0,0-3.44,1.12-6.88,1.05s-9.79,3.21-11.51,5.08c-1.72,1.87,9.72,4.86,16.52,4.33c6.8-0.52,6.73,2.24,10.54,2.02
					c3.81-0.22,81.24-2.62,81.24-2.62l0.97-17.1L138.79,246.26z"/>
			</g>
		</g>
	</g>
	<g>
		<g>
			<g>
				<path class="st2" d="M201.2,141.15c0,0-7.69-5.61-9.7-8.78s-11.1-6.54-13.56-6.54c-2.47,0-11.1-3.59-13.79-6.39
					s-5.38-6.28-7.96-4.93c-2.58,1.35-4.82,21.44-1.91,25.41c2.91,3.96,13.68,12.48,14.24,16.97c0.56,4.48,6.28,17.46,13.56,18.65
					C189.37,176.72,206.31,158.04,201.2,141.15z"/>
			</g>
		</g>
	</g>
	<g>
		<g>
			<g>
				<path class="st2" d="M245.2,144.32c0,0,0.9-15.36,5.83-17.82s12.22-6.87,14.12-10.61c1.91-3.74,1.79-8.88,8.74-10.29
					c6.95-1.41,10.76-3.31,12.22-1.97c1.46,1.35,0.11,9.53-0.67,12.89c-0.78,3.36-2.24,11.99-0.9,15.25
					c1.35,3.25,3.48,12.25,0.45,17.79c-3.03,5.53-5.83,6.43-6.17,8.11s0.56,6.73-3.92,10.2c-4.48,3.48-5.63,8.74-8.92,11.32
					c-3.29,2.58-16.31,3.14-16.31,3.14L245.2,144.32z"/>
			</g>
		</g>
	</g>
	<g>
		<g>
			<g>
				<path class="st3" d="M245.02,220.44c0,0,3.43-15.36,8.36-21.19s11.88-25.37,15.13-29c3.25-3.62,12.78-4.97,12.78-4.97
					s12.41-16.82,20.44-18.27s9.6-0.11,10.5,3.81c0.9,3.92-4.29,16.22-4.33,19.43c-0.04,3.21-0.1,6.63,1.05,8.4
					c1.15,1.77,1.75,7.07-1.86,14.4c-3.61,7.32-6.86,8.33-8.32,14.61c-1.46,6.28,0.34,15.9-7.4,20.45
					c-7.73,4.55-45.59,11.72-45.59,11.72L245.02,220.44z"/>
			</g>
		</g>
	</g>
	<g>
		<g>
			<g>
				<path class="st3" d="M203.03,218.96c0,0-3.43-15.36-8.36-21.19c-4.93-5.83-11.88-25.37-15.13-29
					c-3.25-3.62-12.78-4.97-12.78-4.97s-12.41-16.82-20.44-18.27c-8.03-1.46-9.6-0.11-10.5,3.81c-0.9,3.92,4.29,16.22,4.33,19.43
					c0.04,3.21,0.1,6.63-1.05,8.4c-1.15,1.77-1.75,7.07,1.86,14.4c3.61,7.32,6.86,8.33,8.32,14.61c1.46,6.28-0.34,15.9,7.4,20.45
					c7.74,4.55,45.59,11.72,45.59,11.72L203.03,218.96z"/>
			</g>
		</g>
	</g>
	<g>
		<g>
			<g>
				<g>
					<path class="st4" d="M128.71,252.54c0,0-7.8-10.91-5.41-13.06S128.86,248.18,128.71,252.54z"/>
				</g>
			</g>
		</g>
		<g>
			<g>
				<g>
					<path class="st4" d="M138.96,259.53c0,0-7.8-10.91-5.41-13.06C135.92,244.32,139.1,255.17,138.96,259.53z"/>
				</g>
			</g>
		</g>
		<g>
			<g>
				<g>
					<path class="st4" d="M145.4,266.48c0,0-5.45-12.25-2.69-13.88C145.47,250.96,146.42,262.24,145.4,266.48z"/>
				</g>
			</g>
		</g>
		<g>
			<g>
				<g>
					<path class="st4" d="M138.79,259.28c0,0-13.06-3.02-14.14,0.01C123.57,262.31,134.81,261.09,138.79,259.28z"/>
				</g>
			</g>
		</g>
		<g>
			<g>
				<g>
					<path class="st4" d="M128.72,252.35c0,0-13.06-3.02-14.14,0.01C113.5,255.39,124.75,254.16,128.72,252.35z"/>
				</g>
			</g>
		</g>
		<g>
			<g>
				<g>
					<path class="st4" d="M145.43,266.34c0,0-12.02-5.94-13.76-3.25C129.92,265.79,141.15,267.18,145.43,266.34z"/>
				</g>
			</g>
		</g>
		<g>
			<g>
				<g>
					<path class="st4" d="M118.19,248.41c3.35,0.64,6.61,1.78,9.72,3.21c1.56,0.71,3.07,1.53,4.55,2.4c1.47,0.89,2.9,1.84,4.27,2.87
						c1.36,1.05,2.68,2.15,3.93,3.34c0.31,0.3,0.61,0.61,0.91,0.91l0.45,0.46l0.44,0.47c0.29,0.32,0.59,0.63,0.87,0.95l0.82,0.99
						c2.19,2.65,3.97,5.61,5.34,8.73l-0.06,0.03c-0.8-1.49-1.63-2.98-2.6-4.37c-0.46-0.71-0.98-1.39-1.48-2.07
						c-0.25-0.34-0.53-0.66-0.79-1c-0.27-0.33-0.53-0.66-0.81-0.98l-0.84-0.96c-0.29-0.31-0.58-0.62-0.87-0.92l-0.44-0.46
						l-0.46-0.44c-0.31-0.29-0.6-0.6-0.92-0.88c-1.24-1.15-2.55-2.24-3.9-3.27c-2.71-2.04-5.61-3.83-8.65-5.34
						c-1.52-0.75-3.08-1.44-4.66-2.05c-1.58-0.61-3.19-1.16-4.84-1.57L118.19,248.41z"/>
				</g>
			</g>
		</g>
	</g>
	<g>
		<g>
			<g>
				<g>
					<path class="st4" d="M310.93,246.85c0,0,10.34-8.53,12.66-6.3C325.9,242.77,315.29,246.7,310.93,246.85z"/>
				</g>
			</g>
		</g>
		<g>
			<g>
				<g>
					<path class="st4" d="M306.59,253.45c0,0,10.34-8.53,12.66-6.3C321.57,249.37,310.96,253.29,306.59,253.45z"/>
				</g>
			</g>
		</g>
		<g>
			<g>
				<g>
					<path class="st4" d="M303.84,260.14c0,0,10.34-8.53,12.66-6.3C318.82,256.06,308.21,259.98,303.84,260.14z"/>
				</g>
			</g>
		</g>
		<g>
			<g>
				<g>
					<path class="st4" d="M301.88,267.56c0,0,9.43-9.53,11.96-7.54C319.58,264.51,302.53,267.47,301.88,267.56z"/>
				</g>
			</g>
		</g>
		<g>
			<g>
				<g>
					<path class="st4" d="M311.09,246.78c0,0,0.62-13.39,3.82-13.61C318.12,232.94,313.91,243.44,311.09,246.78z"/>
				</g>
			</g>
		</g>
		<g>
			<g>
				<g>
					<path class="st4" d="M306.66,253.29c0,0-1.65-13.3,1.48-14.06S308.87,249.53,306.66,253.29z"/>
				</g>
			</g>
		</g>
		<g>
			<g>
				<g>
					<path class="st4" d="M303.89,260.27c0,0-5.83-12.07-3.12-13.79S304.78,256,303.89,260.27z"/>
				</g>
			</g>
		</g>
		<g>
			<g>
				<g>
					<path class="st4" d="M301.94,267.57c0,0-7.45-11.15-5-13.23C299.38,252.27,302.22,263.22,301.94,267.57z"/>
				</g>
			</g>
		</g>
		<g>
			<g>
				<g>
					<path class="st4" d="M317.91,240.87c-1.28,0.87-2.46,1.87-3.53,2.97c-0.28,0.27-0.54,0.55-0.8,0.82
						c-0.26,0.29-0.52,0.56-0.77,0.86c-0.25,0.29-0.5,0.58-0.74,0.88c-0.24,0.3-0.49,0.59-0.71,0.9c-0.93,1.22-1.8,2.47-2.59,3.79
						c-0.8,1.3-1.52,2.66-2.17,4.04c-0.68,1.37-1.25,2.8-1.79,4.23c-0.26,0.72-0.54,1.44-0.76,2.17l-0.35,1.1l-0.33,1.11
						c-0.43,1.48-0.81,2.97-1.16,4.48c-0.17,0.75-0.33,1.51-0.5,2.27l-0.21,1.14l-0.23,1.14l-0.07-0.01
						c0.33-3.09,0.86-6.15,1.65-9.16l0.3-1.13c0.11-0.37,0.22-0.74,0.34-1.12c0.21-0.75,0.48-1.48,0.73-2.21
						c0.53-1.46,1.1-2.91,1.78-4.3c1.33-2.8,2.98-5.47,4.95-7.87c0.99-1.2,2.04-2.34,3.2-3.38c0.57-0.53,1.17-1.02,1.79-1.49
						c0.62-0.47,1.26-0.91,1.95-1.28L317.91,240.87z"/>
				</g>
			</g>
		</g>
	</g>
	<g>
		<g>
			<g>
				<path class="st0" d="M156.21,114.5c0.26,2.68,0.77,5.34,1.55,7.91c0.76,2.57,1.79,5.07,3.2,7.33c0.35,0.57,0.73,1.11,1.13,1.64
					c0.19,0.27,0.41,0.52,0.62,0.78c0.21,0.26,0.44,0.5,0.65,0.75c0.22,0.24,0.46,0.47,0.69,0.71c0.24,0.23,0.49,0.44,0.73,0.67
					l0.77,0.63l0.8,0.6c2.17,1.55,4.53,2.86,6.89,4.16c2.35,1.32,4.72,2.63,7.04,4.03c1.16,0.7,2.3,1.44,3.43,2.2
					c1.12,0.77,2.22,1.58,3.27,2.43c2.11,1.72,4.09,3.61,5.78,5.74c0.43,0.52,0.81,1.09,1.22,1.64l0.56,0.85l0.28,0.43l0.26,0.44
					c0.72,1.15,1.29,2.39,1.82,3.63l-0.05,0.02l-0.44-0.91l-0.22-0.46l-0.24-0.44l-0.49-0.89l-0.53-0.86l-0.27-0.43l-0.29-0.42
					l-0.58-0.83c-0.41-0.53-0.8-1.08-1.25-1.59c-1.72-2.08-3.71-3.93-5.82-5.6c-1.06-0.83-2.16-1.62-3.28-2.38
					c-1.12-0.75-2.26-1.47-3.42-2.17c-2.32-1.39-4.69-2.68-7.05-3.99c-1.18-0.66-2.36-1.32-3.52-2.02c-1.16-0.69-2.3-1.42-3.4-2.21
					c-1.09-0.79-2.13-1.67-3.04-2.68c-0.91-1-1.71-2.1-2.41-3.26c-1.4-2.32-2.41-4.85-3.12-7.46c-0.36-1.3-0.65-2.62-0.88-3.96
					c-0.22-1.33-0.4-2.67-0.46-4.03L156.21,114.5z"/>
			</g>
		</g>
	</g>
	<g>
		<g>
			<g>
				<path class="st0" d="M152.76,130.77c0.81,0.06,1.62,0.13,2.43,0.21c0.41,0.04,0.81,0.08,1.21,0.13c0.4,0.05,0.81,0.09,1.21,0.14
					c0.81,0.11,1.61,0.2,2.42,0.32c0.8,0.11,1.61,0.22,2.41,0.35l-0.51,0.39l0.16-1.67l0.18-1.67c0.12-1.11,0.26-2.22,0.4-3.33
					c0.15-1.11,0.3-2.22,0.47-3.32c0.17-1.11,0.35-2.21,0.57-3.31l0.05,0.01l-0.67,6.68c-0.23,2.23-0.44,4.45-0.68,6.68l-0.01,0.05
					l-0.05-0.01l-9.61-1.59L152.76,130.77z"/>
			</g>
		</g>
	</g>
	<g>
		<g>
			<g>
				<path class="st0" d="M159.22,145.13l1.29-0.14l1.3-0.12l2.59-0.24l5.19-0.41c0.86-0.07,1.73-0.13,2.59-0.19l2.6-0.17
					c1.73-0.1,3.46-0.21,5.19-0.3l-0.41,0.55c-0.36-1.53-0.73-3.05-1.08-4.59c-0.35-1.53-0.7-3.06-1.03-4.6l-0.99-4.61l-0.46-2.31
					l-0.23-1.16l-0.22-1.16l0.05-0.01l4.44,18.32l0.01,0.06l-0.06,0l-20.78,1.12L159.22,145.13z"/>
			</g>
		</g>
	</g>
	<g>
		<g>
			<g>
				<path class="st0" d="M168.37,156.2l1.54-0.16l1.54-0.14c1.03-0.09,2.05-0.2,3.08-0.28l6.16-0.49l6.16-0.41l3.08-0.2
					c1.03-0.07,2.06-0.11,3.08-0.17l-0.41,0.41l0.24-4.92c0.04-0.82,0.07-1.64,0.12-2.46l0.15-2.46l0.15-2.46
					c0.05-0.82,0.1-1.64,0.16-2.46c0.13-1.64,0.24-3.28,0.39-4.92l0.05,0l-0.79,19.7l0,0.04l-0.04,0l-24.67,1.43L168.37,156.2z"/>
			</g>
		</g>
	</g>
	<g>
		<g>
			<g>
				<path class="st0" d="M286.13,103.65c-2.23,2.07-4.35,4.25-6.29,6.59c-0.97,1.16-1.9,2.36-2.75,3.61
					c-0.21,0.32-0.42,0.63-0.62,0.95l-0.3,0.48l-0.28,0.49c-0.19,0.32-0.36,0.66-0.54,0.99c-0.16,0.34-0.34,0.67-0.48,1.01
					c-0.31,0.68-0.55,1.38-0.74,2.09l-0.13,0.53l-0.1,0.54c-0.06,0.36-0.11,0.75-0.16,1.13c-0.22,1.51-0.45,3.02-0.74,4.52
					c-0.28,1.5-0.6,3-0.98,4.49c-0.39,1.48-0.83,2.96-1.38,4.4c-0.56,1.44-1.22,2.85-2.05,4.16c-0.22,0.32-0.43,0.65-0.66,0.97
					c-0.24,0.31-0.48,0.62-0.73,0.92l-1.49,1.73c-0.99,1.15-1.95,2.32-2.85,3.53c-0.23,0.3-0.45,0.61-0.67,0.91
					c-0.22,0.31-0.44,0.62-0.65,0.93c-0.21,0.31-0.43,0.62-0.63,0.94c-0.21,0.31-0.41,0.64-0.61,0.96
					c-1.58,2.57-2.84,5.34-3.64,8.25c-0.41,1.45-0.69,2.94-0.84,4.45c-0.03,0.38-0.07,0.75-0.09,1.13
					c-0.01,0.38-0.03,0.76-0.04,1.14c0,0.38,0,0.76,0,1.14l0.05,1.14l-0.05,0c-0.29-3.03-0.05-6.12,0.72-9.06
					c0.76-2.95,2-5.77,3.56-8.38c1.56-2.62,3.42-5.05,5.39-7.36l1.48-1.73c0.24-0.3,0.47-0.6,0.7-0.89
					c0.22-0.31,0.42-0.63,0.64-0.94c0.8-1.29,1.44-2.67,1.99-4.09c0.54-1.42,1-2.87,1.39-4.34c0.38-1.47,0.71-2.96,1-4.45
					c0.29-1.49,0.53-3,0.75-4.5c0.06-0.38,0.11-0.75,0.17-1.13l0.1-0.56l0.14-0.55c0.21-0.73,0.47-1.45,0.79-2.14
					c0.15-0.35,0.33-0.69,0.5-1.03c0.19-0.33,0.36-0.67,0.56-1l0.29-0.49l0.31-0.48c0.2-0.32,0.42-0.63,0.64-0.95
					c0.87-1.25,1.82-2.44,2.82-3.59c1-1.15,2.04-2.26,3.12-3.34c1.08-1.07,2.19-2.12,3.34-3.11L286.13,103.65z"/>
			</g>
		</g>
	</g>
	<g>
		<g>
			<g>
				<path class="st0" d="M269.57,107.51c0.46,0.92,0.89,1.86,1.31,2.8l0.62,1.41l0.61,1.42c0.4,0.94,0.79,1.9,1.18,2.85
					c0.37,0.96,0.76,1.91,1.13,2.87l-0.51-0.28c0.96-0.2,1.91-0.41,2.87-0.6c0.96-0.19,1.91-0.38,2.88-0.55
					c0.96-0.18,1.92-0.34,2.89-0.5c0.97-0.15,1.93-0.31,2.9-0.43l0.01,0.05l-11.44,2.52l-0.04,0.01l-0.02-0.04l-4.42-11.5
					L269.57,107.51z"/>
			</g>
		</g>
	</g>
	<g>
		<g>
			<g>
				<path class="st0" d="M260.43,120.81l0.36,1.44l0.35,1.44l0.69,2.88l1.3,5.78c0.22,0.96,0.42,1.93,0.62,2.89l0.61,2.9l0.61,2.9
					c0.21,0.97,0.41,1.93,0.59,2.9l-0.49-0.35l5.35-0.61l2.67-0.31c0.89-0.1,1.79-0.18,2.68-0.28c1.79-0.18,3.57-0.37,5.36-0.53
					l2.68-0.24l1.34-0.12l1.34-0.1l0.01,0.05l-21.37,2.63l-0.04,0.01l-0.01-0.04l-4.71-23.21L260.43,120.81z"/>
			</g>
		</g>
	</g>
	<g>
		<g>
			<g>
				<path class="st0" d="M248.04,130.35c0.79,2.1,1.54,4.21,2.31,6.32c0.76,2.11,1.49,4.23,2.23,6.35l1.11,3.18l1.08,3.19l2.16,6.37
					l-0.38-0.3l1.4,0.1l1.39,0.12l2.79,0.24l2.79,0.24l1.39,0.12c0.46,0.04,0.93,0.08,1.39,0.13l5.57,0.57l2.78,0.32l1.39,0.16
					l1.39,0.18l0,0.05l-22.31-1.74l-0.03,0l-0.01-0.03l-8.48-25.54L248.04,130.35z"/>
			</g>
		</g>
	</g>
	<g>
		<g>
			<g>
				<path class="st0" d="M137.03,146.42c2,1.17,3.91,2.5,5.73,3.94c0.91,0.72,1.8,1.47,2.65,2.27c0.85,0.79,1.67,1.62,2.43,2.51
					c0.76,0.89,1.46,1.83,2.07,2.84c0.3,0.5,0.58,1.03,0.82,1.57c0.12,0.27,0.23,0.55,0.33,0.83c0.1,0.28,0.19,0.55,0.28,0.83
					c0.71,2.22,1.28,4.47,1.92,6.68c0.63,2.22,1.31,4.42,2.17,6.55c0.85,2.13,1.88,4.18,3.13,6.1c0.62,0.96,1.3,1.88,2.03,2.75
					c0.73,0.88,1.5,1.72,2.34,2.49c0.1,0.1,0.2,0.2,0.31,0.29l0.32,0.28l0.65,0.57c0.45,0.39,0.87,0.79,1.29,1.2
					c0.83,0.83,1.62,1.68,2.39,2.56c1.54,1.75,2.98,3.57,4.38,5.43c1.4,1.86,2.73,3.75,4.03,5.68c1.3,1.93,2.55,3.88,3.76,5.86
					c1.2,1.98,2.36,4,3.47,6.04c1.11,2.04,2.17,4.1,3.16,6.2c0.99,2.1,1.93,4.22,2.76,6.39c0.82,2.17,1.55,4.38,2.09,6.64
					c0.27,1.13,0.49,2.27,0.62,3.43c0.13,1.15,0.17,2.32,0.07,3.48l-0.05,0c0.16-2.31-0.24-4.62-0.79-6.86
					c-0.57-2.24-1.32-4.44-2.17-6.59c-1.7-4.3-3.77-8.46-6.01-12.51c-2.25-4.05-4.68-7.99-7.28-11.82c-1.3-1.91-2.64-3.8-4.04-5.65
					c-1.4-1.85-2.84-3.65-4.37-5.39c-0.77-0.87-1.55-1.71-2.38-2.53c-0.82-0.82-1.72-1.55-2.56-2.35c-0.84-0.8-1.63-1.65-2.37-2.55
					c-0.74-0.9-1.43-1.83-2.05-2.81c-1.25-1.95-2.29-4.03-3.15-6.19c-0.86-2.15-1.54-4.37-2.15-6.6c-0.62-2.23-1.17-4.48-1.85-6.69
					c-0.18-0.55-0.35-1.1-0.58-1.63c-0.23-0.53-0.49-1.04-0.78-1.54c-0.58-1-1.27-1.93-2.01-2.82c-1.49-1.77-3.19-3.35-4.98-4.82
					c-1.79-1.46-3.68-2.82-5.64-4.03L137.03,146.42z"/>
			</g>
		</g>
	</g>
	<g>
		<g>
			<g>
				<path class="st0" d="M137.86,159.17l0.88,0.17l0.88,0.19c0.59,0.13,1.17,0.25,1.76,0.38l3.5,0.83c0.58,0.13,1.16,0.29,1.74,0.44
					c0.58,0.15,1.16,0.29,1.74,0.45c1.16,0.31,2.32,0.61,3.47,0.94l-0.55,0.3c0.3-1,0.59-2,0.91-3l0.47-1.5l0.49-1.49
					c0.33-0.99,0.65-1.99,0.99-2.98c0.36-0.98,0.69-1.98,1.07-2.95l0.05,0.01l-3.51,12.04l-0.01,0.05l-0.05-0.01l-13.85-3.83
					L137.86,159.17z"/>
			</g>
		</g>
	</g>
	<g>
		<g>
			<g>
				<path class="st0" d="M140.24,172.17l0.98,0.18l0.97,0.19l1.94,0.38c1.29,0.27,2.58,0.55,3.87,0.83
					c0.64,0.14,1.29,0.27,1.93,0.42l1.93,0.44c1.29,0.29,2.57,0.61,3.85,0.91l-0.5,0.23c0.67-1.31,1.36-2.61,2.04-3.92l1.04-1.95
					c0.35-0.65,0.69-1.3,1.05-1.94l2.14-3.87l1.1-1.92l0.55-0.96l0.57-0.95l0.04,0.02l-8.11,15.72l-0.02,0.03l-0.04-0.01
					l-15.38-3.78L140.24,172.17z"/>
			</g>
		</g>
	</g>
	<g>
		<g>
			<g>
				<path class="st0" d="M140.16,187.57l1.67,0.07l1.67,0.08l3.33,0.17l6.66,0.41l1.67,0.1l1.66,0.12l3.33,0.24l6.65,0.49
					l-0.47,0.33l1.62-6.09c0.54-2.03,1.07-4.06,1.64-6.09l1.7-6.07l0.88-3.03l0.44-1.51l0.46-1.51l0.05,0.01l-6.31,24.41l-0.01,0.04
					l-0.04,0l-26.61-2.12L140.16,187.57z"/>
			</g>
		</g>
	</g>
	<g>
		<g>
			<g>
				<path class="st0" d="M149.02,205.22l1.73-0.21l1.73-0.2l3.46-0.39l6.93-0.72c2.31-0.25,4.62-0.44,6.94-0.66l6.94-0.64l-0.4,0.35
					l1.54-7.07l0.77-3.53l0.39-1.77l0.41-1.76l1.63-7.05l0.85-3.52l0.43-1.76l0.44-1.76l0.05,0.01l-6.02,28.31l-0.01,0.04l-0.04,0
					l-27.77,2.37L149.02,205.22z"/>
			</g>
		</g>
	</g>
	<g>
		<g>
			<g>
				<path class="st0" d="M151.69,220.34l2.27,0.08l2.26,0.1c1.51,0.07,3.02,0.12,4.53,0.21l4.53,0.24l2.26,0.12l1.13,0.06l1.13,0.07
					l9.05,0.58l2.26,0.15l2.26,0.17l4.52,0.34l-0.41,0.26l2.28-5.42c0.77-1.8,1.56-3.6,2.33-5.4c0.78-1.8,1.55-3.6,2.36-5.39
					c0.8-1.79,1.59-3.59,2.41-5.37l0.05,0.02l-9,21.74l-0.01,0.03l-0.03,0l-36.17-2.54L151.69,220.34z"/>
			</g>
		</g>
	</g>
	<g>
		<g>
			<g>
				<path class="st0" d="M310.08,147.12c-0.82,0.86-1.63,1.72-2.45,2.58c-0.82,0.86-1.63,1.73-2.43,2.6
					c-0.81,0.87-1.61,1.74-2.41,2.62l-2.38,2.64c-1.58,1.77-3.14,3.55-4.65,5.37c-0.75,0.91-1.5,1.83-2.22,2.77
					c-0.72,0.94-1.42,1.89-2.04,2.87c-1.25,1.98-2.29,4.11-3.29,6.25c-1,2.14-1.94,4.32-2.9,6.49c-0.96,2.17-1.92,4.35-2.96,6.49
					c-0.52,1.07-1.07,2.13-1.66,3.18c-0.59,1.04-1.21,2.07-1.93,3.05c-0.36,0.49-0.74,0.97-1.16,1.42
					c-0.21,0.22-0.43,0.44-0.67,0.65c-0.11,0.1-0.25,0.2-0.36,0.3c-0.1,0.09-0.21,0.17-0.31,0.27c-0.41,0.38-0.81,0.81-1.19,1.25
					c-0.38,0.44-0.75,0.9-1.11,1.36c-1.44,1.86-2.79,3.81-4.11,5.78c-2.62,3.94-5.15,7.96-7.59,12.02
					c-2.45,4.06-4.8,8.18-7.09,12.33c-1.14,2.08-2.25,4.17-3.3,6.3c-0.53,1.06-1.03,2.13-1.51,3.22c-0.24,0.54-0.47,1.09-0.68,1.64
					c-0.21,0.55-0.4,1.11-0.53,1.69l-0.05-0.01c0.12-0.58,0.3-1.15,0.5-1.71c0.2-0.56,0.42-1.11,0.65-1.66
					c0.46-1.09,0.96-2.17,1.47-3.24c1.03-2.14,2.12-4.25,3.23-6.34c2.23-4.19,4.58-8.32,6.99-12.4c2.42-4.08,4.91-8.13,7.53-12.08
					c1.32-1.97,2.66-3.93,4.11-5.81c0.36-0.47,0.73-0.93,1.12-1.38c0.39-0.45,0.79-0.89,1.22-1.3c0.22-0.2,0.46-0.38,0.68-0.57
					c0.22-0.19,0.43-0.4,0.64-0.62c0.4-0.43,0.77-0.9,1.12-1.37c0.69-0.96,1.31-1.98,1.89-3.01c0.58-1.03,1.12-2.09,1.64-3.16
					c1.04-2.13,2.01-4.3,2.98-6.46c0.96-2.17,1.92-4.34,2.93-6.49c0.51-1.07,1.02-2.14,1.57-3.19c0.55-1.05,1.13-2.09,1.77-3.09
					c0.65-1,1.36-1.95,2.09-2.88c0.73-0.94,1.49-1.85,2.25-2.76c1.53-1.81,3.11-3.58,4.72-5.33c3.21-3.5,6.49-6.92,9.84-10.29
					L310.08,147.12z"/>
			</g>
		</g>
	</g>
	<g>
		<g>
			<g>
				<path class="st0" d="M298.02,148.53l-0.07,0.87l-0.08,0.87L297.7,152l-0.41,3.46c-0.13,1.15-0.3,2.3-0.45,3.45
					c-0.16,1.15-0.33,2.29-0.5,3.44l-0.53-0.51l3.75-0.76l1.88-0.36l0.94-0.18l0.94-0.17l3.77-0.66l1.89-0.29l0.95-0.14l0.95-0.13
					l0.01,0.05l-14.99,3.11l-0.07,0.01l0.01-0.07l2.13-13.75L298.02,148.53z"/>
			</g>
		</g>
	</g>
	<g>
		<g>
			<g>
				<path class="st0" d="M281.32,165.28c0.31,1.47,0.58,2.95,0.86,4.42c0.15,0.74,0.28,1.48,0.41,2.22l0.39,2.22
					c0.26,1.48,0.54,2.96,0.77,4.44l0.72,4.45l-0.53-0.35l3.04-0.79l3.05-0.75l6.11-1.49l6.13-1.4c1.02-0.24,2.05-0.44,3.07-0.67
					l1.54-0.33l1.54-0.31l0.01,0.05l-24.38,6.15l-0.05,0.01l-0.01-0.05l-2.73-17.8L281.32,165.28z"/>
			</g>
		</g>
	</g>
	<g>
		<g>
			<g>
				<path class="st0" d="M266.86,172.83c0.9,1.9,1.76,3.82,2.64,5.72c0.87,1.91,1.71,3.84,2.56,5.76l1.28,2.88l1.24,2.89l2.49,5.79
					l-0.43-0.27l2.05-0.15l2.05-0.13l4.11-0.25c2.74-0.16,5.48-0.34,8.21-0.49l8.22-0.42l4.11-0.17l2.06-0.08l2.06-0.07l0,0.05
					l-32.84,2.2l-0.03,0l-0.01-0.03l-9.81-23.21L266.86,172.83z"/>
			</g>
		</g>
	</g>
	<g>
		<g>
			<g>
				<path class="st0" d="M259.25,188.99c0.56,1.88,1.08,3.78,1.62,5.67l0.4,1.42l0.39,1.42l0.77,2.84l0.77,2.84l0.39,1.42l0.37,1.42
					l1.48,5.7L265,211.4l4.19-0.44c1.4-0.15,2.8-0.27,4.2-0.41l8.4-0.8l8.41-0.71l1.05-0.09l1.05-0.08l2.1-0.16l2.1-0.16l2.11-0.14
					l0.01,0.05l-33.57,3.4l-0.04,0l-0.01-0.04L259.21,189L259.25,188.99z"/>
			</g>
		</g>
	</g>
	<g>
		<g>
			<g>
				<path class="st0" d="M251.02,202.94c0.67,1.67,1.32,3.35,1.97,5.03c0.32,0.84,0.66,1.68,0.97,2.52l0.95,2.53l1.9,5.05
					c0.63,1.69,1.24,3.38,1.86,5.07l-0.4-0.27l4.7-0.15c1.57-0.05,3.13-0.11,4.7-0.14l9.4-0.2c0.78-0.01,1.57-0.04,2.35-0.05
					l2.35-0.03l4.7-0.05c1.57-0.02,3.14-0.02,4.7-0.02c1.57,0,3.14-0.01,4.7,0.01l0,0.05l-37.6,1.03l-0.03,0l-0.01-0.03l-7.28-20.34
					L251.02,202.94z"/>
			</g>
		</g>
	</g>
	<g>
		<g>
			<g>
				<path class="st4" d="M153.64,172.16c4.49,3.51,8.45,7.64,12.13,11.99l1.37,1.64c0.45,0.55,0.88,1.12,1.32,1.68
					c0.89,1.11,1.73,2.27,2.58,3.41c0.43,0.57,0.83,1.16,1.24,1.74l1.22,1.76c0.21,0.29,0.4,0.59,0.59,0.89l0.58,0.89l1.17,1.79
					l2.21,3.66c0.36,0.62,0.7,1.24,1.06,1.86c0.35,0.62,0.7,1.24,1.05,1.86c0.67,1.26,1.32,2.53,1.98,3.79
					c0.34,0.63,0.64,1.27,0.94,1.92l0.91,1.93c0.3,0.64,0.61,1.28,0.89,1.94c0.28,0.65,0.57,1.3,0.85,1.96l0.84,1.96l0.77,1.99
					c1.03,2.65,1.95,5.34,2.82,8.04l-0.08,0.03c-1.98-5.31-4.19-10.54-6.68-15.64c-2.48-5.1-5.24-10.06-8.27-14.85
					c-3.02-4.8-6.31-9.42-9.87-13.84c-1.79-2.2-3.63-4.35-5.57-6.42l-1.47-1.54c-0.49-0.51-0.99-1.01-1.5-1.51
					c-1.01-0.99-2.05-1.96-3.13-2.87L153.64,172.16z"/>
			</g>
		</g>
	</g>
	<g>
		<g>
			<g>
				<path class="st4" d="M159.13,177.3c0,0-5.16-12.37-2.35-13.94C159.58,161.79,160.25,173.08,159.13,177.3z"/>
			</g>
		</g>
	</g>
	<g>
		<g>
			<g>
				<path class="st4" d="M159.12,177.41c0,0-11.8-6.35-13.64-3.72C143.64,176.33,154.81,178.11,159.12,177.41z"/>
			</g>
		</g>
	</g>
	<g>
		<g>
			<g>
				<path class="st4" d="M166.15,185.61c0,0-11.8-6.35-13.64-3.72C150.67,184.52,161.84,186.31,166.15,185.61z"/>
			</g>
		</g>
	</g>
	<g>
		<g>
			<g>
				<path class="st4" d="M171.47,192.66c0,0-11.8-6.35-13.64-3.72C155.99,191.57,167.16,193.36,171.47,192.66z"/>
			</g>
		</g>
	</g>
	<g>
		<g>
			<g>
				<path class="st4" d="M176.29,199.71c0,0-11.8-6.35-13.64-3.72C160.81,198.62,171.98,200.41,176.29,199.71z"/>
			</g>
		</g>
	</g>
	<g>
		<g>
			<g>
				<path class="st4" d="M188.73,224.31c0,0-8.75-10.15-11.41-8.35C174.66,217.76,184.46,223.42,188.73,224.31z"/>
			</g>
		</g>
	</g>
	<g>
		<g>
			<g>
				<path class="st4" d="M166.32,185.7c0,0-5.16-12.37-2.35-13.94C166.77,170.19,167.45,181.48,166.32,185.7z"/>
			</g>
		</g>
	</g>
	<g>
		<g>
			<g>
				<path class="st4" d="M171.51,192.81c0,0-5.16-12.37-2.35-13.94C171.96,177.3,172.63,188.59,171.51,192.81z"/>
			</g>
		</g>
	</g>
	<g>
		<g>
			<g>
				<path class="st4" d="M176.36,200.09c0,0-5.16-12.37-2.35-13.94S177.48,195.88,176.36,200.09z"/>
			</g>
		</g>
	</g>
	<g>
		<g>
			<g>
				<path class="st4" d="M188.58,224.31c0,0-5.16-12.37-2.35-13.94C189.03,208.8,189.7,220.09,188.58,224.31z"/>
			</g>
		</g>
	</g>
	<g>
		<g>
			<g>
				<path class="st4" d="M282.35,180.63c0,0,10.03-8.89,12.42-6.75C297.17,176.03,286.7,180.33,282.35,180.63z"/>
			</g>
		</g>
	</g>
	<g>
		<g>
			<g>
				<path class="st4" d="M276.49,189.64c0,0,10.03-8.89,12.42-6.75C291.31,185.03,280.85,189.33,276.49,189.64z"/>
			</g>
		</g>
	</g>
	<g>
		<g>
			<g>
				<path class="st4" d="M271.11,198.74c0,0,10.03-8.89,12.42-6.75C285.93,194.13,275.46,198.43,271.11,198.74z"/>
			</g>
		</g>
	</g>
	<g>
		<g>
			<g>
				<path class="st4" d="M259.85,224.37c0,0,7.09-11.38,10-10C272.75,215.74,263.94,222.83,259.85,224.37z"/>
			</g>
		</g>
	</g>
	<g>
		<g>
			<g>
				<path class="st4" d="M282.5,180.55c0,0,5.69-12.14,2.96-13.83C282.73,165.03,281.56,176.29,282.5,180.55z"/>
			</g>
		</g>
	</g>
	<g>
		<g>
			<g>
				<path class="st4" d="M276.65,189.48c0,0,5.69-12.14,2.96-13.83C276.87,173.97,275.71,185.22,276.65,189.48z"/>
			</g>
		</g>
	</g>
	<g>
		<g>
			<g>
				<path class="st4" d="M271.15,198.66c0,0,5.69-12.14,2.96-13.83S270.21,194.4,271.15,198.66z"/>
			</g>
		</g>
	</g>
	<g>
		<g>
			<g>
				<path class="st4" d="M259.85,224.44c0,0,3.56-12.92,0.58-14.13C257.46,209.11,258.21,220.4,259.85,224.44z"/>
			</g>
		</g>
	</g>
	<g>
		<g>
			<g>
				<path class="st4" d="M288.49,172.71c-0.41,0.52-0.81,1.04-1.19,1.58c-0.2,0.26-0.4,0.52-0.59,0.79l-0.58,0.8l-0.58,0.8
					l-0.57,0.81c-0.37,0.54-0.76,1.08-1.12,1.62c-0.74,1.09-1.5,2.16-2.21,3.27l-1.08,1.65c-0.18,0.27-0.36,0.55-0.53,0.83
					l-0.52,0.84c-0.69,1.12-1.4,2.23-2.07,3.36l-1.02,1.69l-0.51,0.84l-0.49,0.86l-1.97,3.42l-1.88,3.47l-0.48,0.86
					c-0.16,0.29-0.3,0.58-0.45,0.88l-0.9,1.76c-0.6,1.17-1.22,2.33-1.77,3.52l-1.72,3.55c-0.3,0.59-0.55,1.2-0.82,1.79l-0.82,1.8
					l-0.82,1.8c-0.13,0.3-0.28,0.6-0.4,0.9l-0.38,0.91l-1.52,3.65c-0.54,1.2-0.99,2.44-1.47,3.67l-0.72,1.84l-0.74,1.84l-0.06-0.02
					l1.31-3.74c0.44-1.24,0.85-2.5,1.35-3.72l1.44-3.69l0.36-0.92c0.12-0.31,0.26-0.61,0.39-0.91l0.78-1.82l0.78-1.82
					c0.26-0.6,0.51-1.22,0.8-1.81l1.68-3.58c0.54-1.2,1.17-2.37,1.76-3.55l0.9-1.77c0.15-0.29,0.29-0.59,0.45-0.88l0.47-0.87
					l1.9-3.47l1.99-3.42l0.5-0.85l0.52-0.84l1.04-1.68c0.68-1.13,1.41-2.23,2.13-3.34c2.9-4.41,5.96-8.72,9.37-12.76L288.49,172.71z
					"/>
			</g>
		</g>
	</g>
	<g>
		<g>
			<g>
				<path class="st5" d="M191.16,231.09c0,0-41.63-9.18-49.42-6.68s-12.72,10.12-8.53,18.86c4.19,8.74,29.82,21,49.92,23.47
					s34.45,3.06,34.53,2.84s4.78,8.15,4.78,8.15l9.42-0.82c0,0,57.61-13.08,67.97-22.57s9.24-20.76,5.05-27.34
					c-2.19-3.44-16.73-3.89-29.89-2.18c-12.06,1.57-22.93,5.19-22.93,5.19L191.16,231.09z"/>
			</g>
		</g>
	</g>
	<g>
		<g>
			<g>
				<path class="st4" d="M225.82,277.43c0,0,5.88,2.84,13.96,3.73c8.07,0.9,11.51,2.02,14.57,0.75s6.42-7.21,5.3-12.09
					c0,0-11.58-1.74-18.23-0.4S225.82,277.43,225.82,277.43z"/>
			</g>
		</g>
	</g>
	<g class="st6">
		<g>
			<g>
				<path class="st4" d="M186.12,263.48c0,0,4.18-2.05,7.14-0.78c2.56,1.1,19.53,4.33,24.05,5.18c0.32,0.06,0.36,0.49,0.06,0.61l0,0
					c0,0-19.43-2.12-23.09-3.47C190.6,263.67,186.51,263.24,186.12,263.48z"/>
			</g>
		</g>
	</g>
	<g class="st7">
		<g>
			<g>
				<path class="st8" d="M235.35,271.63c0,0,7.12-1.35,10.4-1.27c3.29,0.07,12.2-0.42,14,0l-0.1-0.54c0,0-14.54-1.31-17.1-0.59
					C239.99,269.96,239.7,269.27,235.35,271.63z"/>
			</g>
		</g>
	</g>
	<g>
		<g>
			<g>
				<path class="st9" d="M252.12,230.19"/>
			</g>
		</g>
	</g>
	<g>
		<g>
			<g>
				<path class="st4" d="M166.78,233.96c4.16,1.19,8.22,2.78,12.05,4.86c1.92,1.04,3.77,2.23,5.49,3.63
					c0.86,0.7,1.67,1.48,2.41,2.33l0.53,0.63c0.17,0.19,0.32,0.39,0.5,0.58c0.18,0.18,0.35,0.37,0.54,0.55l0.57,0.53
					c0.77,0.7,1.59,1.37,2.44,2c0.85,0.63,1.73,1.22,2.62,1.81c1.78,1.17,3.63,2.25,5.5,3.32c0.93,0.53,1.88,1.04,2.82,1.55
					c0.94,0.52,1.9,1.01,2.85,1.51c0.95,0.5,1.91,1,2.87,1.48l2.9,1.44l-0.03,0.08c-2-0.82-3.97-1.69-5.93-2.6
					c-1.95-0.91-3.89-1.87-5.8-2.88c-1.91-1.01-3.78-2.08-5.61-3.23c-0.91-0.58-1.81-1.18-2.68-1.82c-0.87-0.64-1.72-1.31-2.52-2.04
					l-0.59-0.56c-0.19-0.19-0.37-0.39-0.56-0.59c-0.36-0.4-0.7-0.83-1.04-1.24c-0.7-0.82-1.48-1.56-2.3-2.26
					c-1.64-1.39-3.45-2.57-5.31-3.66c-1.86-1.08-3.79-2.05-5.76-2.94c-1.96-0.89-3.96-1.7-6-2.42L166.78,233.96z"/>
			</g>
		</g>
	</g>
	<g>
		<g>
			<g>
				<path class="st4" d="M279.17,231.43c-2.66,0.64-5.28,1.43-7.8,2.45c-1.27,0.49-2.51,1.03-3.72,1.63
					c-1.21,0.6-2.4,1.25-3.53,1.97l-0.84,0.56l-0.81,0.59l-0.79,0.61l-0.76,0.64l-0.73,0.67c-0.23,0.24-0.47,0.47-0.69,0.71
					c-0.22,0.25-0.44,0.49-0.65,0.74l-0.62,0.78c-0.87,1.14-1.86,2.13-2.88,3.09c-0.25,0.24-0.51,0.48-0.77,0.71l-0.78,0.69
					c-0.53,0.45-1.05,0.9-1.59,1.33c-4.31,3.46-8.88,6.51-13.54,9.41c-2.33,1.45-4.69,2.85-7.08,4.2c-1.2,0.67-2.4,1.33-3.6,1.99
					l-1.81,0.98l-1.83,0.94l-0.04-0.07c4.74-2.74,9.41-5.6,14-8.58c2.3-1.49,4.57-3.02,6.81-4.59c2.24-1.57,4.44-3.2,6.57-4.92
					c0.54-0.42,1.05-0.87,1.58-1.31l0.77-0.68c0.26-0.22,0.51-0.46,0.76-0.69c1-0.93,1.97-1.9,2.81-2.97
					c1.67-2.19,3.85-3.95,6.19-5.37c2.34-1.43,4.86-2.55,7.45-3.46c1.29-0.46,2.6-0.86,3.93-1.22c1.32-0.35,2.66-0.66,4.01-0.9
					L279.17,231.43z"/>
			</g>
		</g>
	</g>
	<g>
		<g>
			<g>
				<path class="st10" d="M222.15,226.68c-0.05-5.54,0-31.87,0-32.14l0.17,0c0,0.27-0.05,26.59,0,32.13L222.15,226.68z"/>
			</g>
		</g>
	</g>
	<g>
		<g>
			<g>
				<path class="st11" d="M195.46,186.1c0.07,0.12,0.14,0.23,0.21,0.35C195.69,186.44,195.64,186.35,195.46,186.1z"/>
			</g>
		</g>
	</g>
	<g>
		<g>
			<g>
				<path class="st10" d="M248.54,186l-0.05-0.05c-0.04-0.05-0.03-0.12,0.15-0.36l0.13-0.18l0.02,0.22
					c0.01,0.15-0.12,0.32-0.19,0.35L248.54,186z M248.63,185.9L248.63,185.9L248.63,185.9z"/>
			</g>
		</g>
	</g>
	<g>
		<g>
			<g>
				<path class="st10" d="M195.67,186.53c-0.02,0-0.05-0.01-0.07-0.03c-0.07-0.05-0.23-0.26-0.22-0.41l0.02-0.26l0.13,0.22
					c0.07,0.11,0.14,0.23,0.21,0.35l0.05,0.09l-0.1,0.04C195.69,186.53,195.68,186.53,195.67,186.53z"/>
			</g>
		</g>
	</g>
	<g>
		<g>
			<g>
				<path class="st1" d="M283.73,206.82c-8.52-5.35-14.37-13.03-18.22-22.06c-0.17-0.33,0-0.5-0.17-0.84
					c-4.18-10.03-4.18-20.72-5.85-31.42c-0.5-3.18-2.01-6.18-5.01-7.85c-6.52-3.84-14.04-4.68-21.22-5.06l-22.37,0.46
					c-4.73,0.05-9.41,0.88-14.09,2.05c-4.01,1.17-8.02,2.84-10.53,6.18c-2.34,5.35-2.51,11.36-3.01,17.21c0,0.5-0.33,1-0.33,1.5
					c-0.33,3.68-1,7.19-1.84,10.86c0,0.17-0.33,0.5-0.33,0.67c-2.67,10.36-8.02,19.39-16.54,26.07c-4.55,3.52-9.36,5.88-14.76,7.2
					l5.18,9.65c1.8-0.23,3.55-0.56,5.4-0.81c4.85-0.84,9.36-2.01,14.04-3.34c4.68-1.5,9.19-3.34,12.87-6.68
					c5.35-7.02,7.52-15.88,8.51-24.53c0.18,0.25,0.23,0.34,0.21,0.35c0.63,1.03,1.35,2.08,1.8,3.13c0.5,1.5,1,3.01,1.5,4.51
					c0,0.33,0,0.5,0,0.84c2.01,8.19-1,16.04-4.68,23.23c-0.67,1.67-1.34,3.34-2.17,5.01c-0.17,0.33,0,0.5-0.17,0.84
					c-0.84,2.01-2.01,4.18-2.01,6.35c0.5,0.17,0.84,0.84,1.5,0.84c0.17,0,0.17,0.33,0.33,0.33c9.69,4.18,20.39,4.18,30.75,4.01
					c8.52-0.33,16.71-1.34,25.23-3.34l5.55-1.76c0.49-0.22,0.99-0.55,0.99-1.05c-0.17-0.84-0.33-1.67-0.67-2.51
					c-1.84-4.68-3.68-9.19-6.02-13.7c-0.17-0.33,0-0.5-0.17-0.84c-3.01-6.35-3.84-13.54-1.84-20.22c0.17-0.5,0.33-1,0.5-1.5
					c0.17-0.5,0.5-0.84,0.67-1.34c0.17-0.33,0-0.5,0.17-0.84c0.17-0.17,0.33-0.5,0.5-0.67c0.33-0.67,0.67-1.5,1.23-2.14
					c0.44,3.98,1.27,7.99,2.28,12c0.33,0.67,0.5,1.34,0.84,2.01c1,3.01,2.01,5.85,3.84,8.52c0.84,1,1.5,2.01,2.51,2.84
					c1.67,1.34,3.51,2.34,5.35,3.34c1,0.33,1.84,0.67,2.84,1.17c0.33,0.17,0.5,0,0.84,0.17c0.5,0.17,0.84,0.5,1.34,0.67
					c7.19,2.17,14.2,3.84,21.72,4.68c0.5,0,0.84,0.33,1.34,0.33c0.06,0,0.11,0,0.17,0l5.12-9.54
					C292.36,210.95,287.93,209.36,283.73,206.82z"/>
			</g>
		</g>
	</g>
	<g>
		<g>
			<g>
				<path class="st10" d="M303.56,215.48c-0.08-0.05-0.17-0.1-0.27-0.18l0.09-0.14l0.27,0.18L303.56,215.48z"/>
			</g>
		</g>
	</g>
	<g>
		<g>
			<g>
				<path class="st10" d="M303.92,215.64c-0.05,0-0.14-0.03-0.36-0.16l-0.92-0.6l0.73,0.27c0.06,0.02,0.63,0.24,0.65,0.39l0.01,0.05
					l-0.05,0.03C303.96,215.63,303.95,215.64,303.92,215.64z"/>
			</g>
		</g>
	</g>
	<g>
		<g>
			<g>
				<path class="st12" d="M303.12,224.2c5.85,1.34,11.87,2.17,17.88,1.67c0.67,0,0.84-0.5,0.67-1c-0.17-0.33-0.5-0.67-0.84-0.67
					c-1.17,0-2.01-0.5-3.01-1c-4.01-1.5-7.69-3.51-11.36-6.02c-1.06-0.61-1.98-1.21-2.86-1.78c-0.08-0.05-0.17-0.1-0.27-0.17
					c0.45,0.12,0.79,0.28,1.29,0.28c2.51-0.17,5.18-0.17,7.52-1.17c0-0.67,0.17-1.34,0-2.01c-5.1,0.53-10.24,0.45-15.26-0.51
					l-5.12,9.54c0.41,0,0.73,0,1.17,0C296.43,221.7,299.94,222.87,303.12,224.2z"/>
			</g>
		</g>
	</g>
	<g>
		<g>
			<g>
				<g>
					<path class="st12" d="M140.83,215.69C140.06,215.98,140.02,216.25,140.83,215.69L140.83,215.69z"/>
				</g>
			</g>
		</g>
		<g>
			<g>
				<g>
					<path class="st12" d="M149.46,211.82c-0.75,0.18-1.51,0.35-2.29,0.49c-5.18,1-10.03,1-15.04,0.5c-0.33,0.67-0.5,1.84,0.17,2.01
						c2.34,1,4.85,1,7.35,1.17c0.33,0,0.84-0.17,1.18-0.29c-5.35,3.63-11.04,7.14-17.39,8.98c-0.33,0.17-0.84,0.33-1,0.67
						c-0.33,0.5,0.33,1,0.67,1c6.02,0.5,12.2-0.33,18.05-1.67c3.68-1.5,7.52-2.67,11.53-3.01c0.66-0.04,1.31-0.11,1.96-0.19
						L149.46,211.82z"/>
				</g>
			</g>
		</g>
	</g>
	<g>
		<g>
			<g>
				<path class="st9" d="M215.04,92.31"/>
			</g>
		</g>
	</g>
	<g>
		<g>
			<g>
				<path class="st12" d="M215.94,129.45c0,0-1.27,8.67-4.48,10.31l10.39,19.43l12.11-19.13c0,0-4.49-5.97-2.85-10.61H215.94z"/>
			</g>
		</g>
	</g>
	<g class="st13">
		<g>
			<g>
				<path class="st2" d="M215.74,130.57c0,0-0.43,1.98-0.57,2.44c-0.21,0.68-0.62,2.06-0.62,2.06s14.77-0.16,16.15-4.53L226.4,129
					L215.74,130.57z"/>
			</g>
		</g>
	</g>
	<g>
		<g>
			<g>
				<g>
					<path class="st12" d="M223.15,132.36L223.15,132.36c-9.1,0-16.48-7.38-16.48-16.48v-20.1c0-9.1,7.38-16.48,16.48-16.48h0
						c9.1,0,16.48,7.38,16.48,16.48v20.1C239.63,124.99,232.25,132.36,223.15,132.36z"/>
				</g>
			</g>
		</g>
		<g>
			<g>
				<g>
					<circle class="st12" cx="206.71" cy="113.37" r="4.19"/>
				</g>
			</g>
		</g>
		<g>
			<g>
				<g>
					<circle class="st12" cx="239.63" cy="111.71" r="4.19"/>
				</g>
			</g>
		</g>
	</g>
	<g class="st13">
		<g>
			<g>
				<path class="st2" d="M210.13,96.56l3.27-1.69c0.91-0.47,2.02-0.2,2.61,0.63c2.71,3.83,11.73,13.7,24.07,10.09l-7.45-8.14
					l-16.4-7.25l-5.68,0.37L210.13,96.56z"/>
			</g>
		</g>
	</g>
	<g>
		<g>
			<g>
				<ellipse class="st5" cx="222.84" cy="71.31" rx="10.34" ry="11.66"/>
			</g>
		</g>
	</g>
	<g>
		<g>
			<g>
				
					<ellipse transform="matrix(0.5288 -0.8487 0.8487 0.5288 43.918 232.5428)" class="st5" cx="231.39" cy="76.72" rx="9.27" ry="6.98"/>
			</g>
		</g>
	</g>
	<g>
		<g>
			<g>
				
					<ellipse transform="matrix(0.8487 -0.5288 0.5288 0.8487 -7.9162 124.0947)" class="st5" cx="212.96" cy="75.89" rx="6.98" ry="9.27"/>
			</g>
		</g>
	</g>
	<g>
		<g>
			<g>
				<path class="st4" d="M233.91,140.21c0.01-0.06,0.06-0.04,0.06-0.04c0.01,0,0.01,0,0.02,0l0.02,0.01l0.03,0.02l0.06,0.03
					l0.12,0.07l0.24,0.14l0.47,0.29c0.31,0.2,0.62,0.4,0.92,0.61c0.62,0.4,1.22,0.83,1.82,1.24c0.61,0.42,1.2,0.85,1.8,1.27
					c0.6,0.43,1.19,0.86,1.78,1.3l0.53,0.39l-0.51,0.47l-1.47,1.34c-0.49,0.45-0.99,0.88-1.48,1.32l-1.49,1.32
					c-0.49,0.44-1,0.87-1.5,1.3l-0.03-1.14l2.03,1.54c0.68,0.51,1.34,1.04,2.01,1.56l1.13,0.87l-1.36,0.42l-2.13,0.65
					c-0.71,0.22-1.43,0.42-2.14,0.63l-2.14,0.62l-2.15,0.6c-0.72,0.2-1.44,0.39-2.16,0.58c-0.72,0.19-1.44,0.39-2.16,0.56
					c-1.45,0.36-2.89,0.72-4.35,1.03l-0.02-0.08l17.03-5.38l-0.02,0.14c-1.35-1.03-2.69-2.07-4.03-3.1l-0.08-0.06l0.07-0.06
					l6.06-5.14l0,0.09l-3.44-2.73l-1.73-1.36l-0.87-0.67l-0.44-0.33l-0.22-0.16l-0.11-0.08l-0.06-0.04l-0.03-0.02l-0.01-0.01
					c0,0,0,0,0,0c-0.01,0,0.03,0.02,0.04-0.04H233.91z"/>
			</g>
		</g>
	</g>
	<g>
		<g>
			<g>
				<path class="st4" d="M211.41,139.91c0,0.01,0.01,0.03,0.02,0.03c0.01,0,0.01,0,0.01,0c0.01,0,0.01,0,0.01,0c0,0,0,0,0,0
					l-0.01,0.01l-0.03,0.02l-0.07,0.04l-0.13,0.09l-0.26,0.19l-0.52,0.39l-1.04,0.78l-2.08,1.55l-2.09,1.53
					c-0.7,0.51-1.4,1.01-2.1,1.52l0.05-0.95c0.52,0.41,1.04,0.82,1.55,1.25l1.54,1.26c0.51,0.42,1.03,0.83,1.53,1.26l1.52,1.28
					l0.69,0.58l-0.72,0.56l-1,0.78c-0.34,0.26-0.67,0.52-1.01,0.78l-2.03,1.54l-0.23-1.28c0.71,0.23,1.42,0.45,2.12,0.69l2.12,0.71
					c1.41,0.47,2.82,0.96,4.22,1.45c0.7,0.24,1.4,0.5,2.1,0.75c0.7,0.25,1.4,0.51,2.1,0.77c1.4,0.52,2.79,1.06,4.17,1.63l-0.02,0.08
					l-17.05-5.31l-0.14-0.04l0.12-0.09l2.01-1.55l2.02-1.55l0,0.12l-6.04-5.17l-0.06-0.05l0.07-0.05l4.32-2.87l2.17-1.42l1.09-0.7
					l0.55-0.35l0.28-0.17l0.14-0.08l0.07-0.04l0.04-0.02l0.02-0.01c0,0,0.01,0,0.02,0c0,0,0.01,0,0.02,0c0.01,0,0.01,0,0.02,0.01
					c0.01,0.01,0.02,0.03,0.02,0.04H211.41z"/>
			</g>
		</g>
	</g>
	<g>
		<g>
			<g>
				<path class="st4" d="M222.11,165.29c0.28,1.55,0.42,3.1,0.53,4.65c0.1,1.55,0.16,3.09,0.17,4.64c0.02,1.54-0.01,3.09-0.07,4.63
					c-0.05,1.55-0.15,3.08-0.26,4.65l-0.08,0.01c-0.2-1.54-0.26-3.09-0.32-4.64c-0.05-1.55-0.08-3.1-0.1-4.65
					c-0.01-1.55-0.01-3.1,0-4.65l0.02-2.32l0.04-2.32L222.11,165.29z"/>
			</g>
		</g>
	</g>
	<g>
		<g>
			<g>
				<path class="st4" d="M222.19,189.49c0.23,3.29,0.34,6.57,0.39,9.86l0.02,1.23l0.01,1.23l0.02,2.46l-0.02,4.92l-0.08,4.92
					c-0.05,1.64-0.07,3.28-0.13,4.92c-0.05,1.64-0.11,3.28-0.18,4.92l-0.1,2.46l-0.04,1.23c-0.01,0.41-0.01,0.82-0.01,1.23
					l-0.08,0.01c-0.03-0.41-0.07-0.82-0.1-1.23l-0.05-1.23c-0.03-0.82-0.04-1.64-0.06-2.46c-0.02-1.64-0.04-3.28-0.04-4.93
					c-0.01-3.28,0.01-6.57,0.03-9.85c0.08-6.57,0.19-13.14,0.32-19.7L222.19,189.49z"/>
			</g>
		</g>
	</g>
	<g>
		<g>
			<g>
				<path class="st4" d="M193.22,163.01c-0.07,1.99-0.17,3.95-0.24,5.91c-0.07,1.95-0.09,3.9-0.01,5.82
					c0.02,0.48,0.06,0.96,0.1,1.43c0.02,0.24,0.05,0.47,0.08,0.71l0.1,0.7c0.08,0.46,0.16,0.93,0.29,1.37
					c0.05,0.23,0.14,0.44,0.2,0.66c0.07,0.22,0.16,0.47,0.24,0.7c0.16,0.47,0.33,0.94,0.47,1.41c0.15,0.47,0.29,0.95,0.43,1.43
					c0.13,0.48,0.26,0.96,0.37,1.45c0.1,0.49,0.22,0.97,0.24,1.49l-0.08,0c-0.04-0.23-0.12-0.47-0.19-0.7
					c-0.08-0.23-0.16-0.47-0.24-0.7c-0.17-0.46-0.34-0.92-0.52-1.38c-0.35-0.92-0.72-1.83-1.1-2.75c-0.19-0.45-0.39-0.91-0.53-1.39
					c-0.16-0.47-0.26-0.96-0.36-1.44c-0.19-0.97-0.28-1.96-0.34-2.95c-0.09-1.98,0-3.96,0.18-5.92c0.18-1.97,0.45-3.93,0.82-5.87
					L193.22,163.01z"/>
			</g>
		</g>
	</g>
	<g>
		<g>
			<g>
				<path class="st4" d="M250.75,163c0.65,1.89,1.06,3.85,1.35,5.82c0.28,1.98,0.42,3.98,0.32,6c-0.06,1.01-0.16,2.03-0.38,3.03
					c-0.12,0.5-0.24,1.01-0.42,1.5c-0.08,0.25-0.18,0.49-0.29,0.74c-0.11,0.24-0.21,0.45-0.32,0.67c-0.22,0.44-0.42,0.89-0.64,1.33
					l-0.64,1.33l-0.65,1.33c-0.11,0.22-0.21,0.44-0.32,0.67c-0.11,0.22-0.21,0.45-0.29,0.67l-0.08,0c0.04-0.26,0.12-0.49,0.19-0.73
					c0.07-0.24,0.15-0.47,0.23-0.7c0.16-0.47,0.33-0.93,0.5-1.39c0.35-0.92,0.72-1.84,1.09-2.75c0.19-0.46,0.38-0.91,0.52-1.38
					c0.15-0.47,0.25-0.95,0.35-1.43c0.18-0.97,0.27-1.95,0.32-2.93c0.1-1.97,0.02-3.94-0.15-5.9c-0.08-0.98-0.19-1.96-0.32-2.94
					c-0.13-0.98-0.27-1.95-0.44-2.92L250.75,163z"/>
			</g>
		</g>
	</g>
	<g>
		<g>
			<g>
				<path class="st4" d="M222.34,277.55c-5.13,4.76-20.16,3.69-31.07,1.82c-9.64-1.65-8.84-11.07-6.87-14.42
					c0.26-0.44,0.54-0.78,0.82-0.98c2.39-1.72,12.63,1.57,14.05,2.02c1.42,0.45,18.09,2.5,18.09,2.5L222.34,277.55z"/>
			</g>
		</g>
	</g>
	<g>
		<g>
			<g>
				<path class="st12" d="M188.75,264.99c0.62,0.16,1.17,0.49,1.69,0.86c0.51,0.39,0.97,0.85,1.36,1.36c0.4,0.5,0.72,1.07,1,1.65
					c0.26,0.59,0.48,1.2,0.63,1.82c0.14,0.62,0.25,1.25,0.29,1.89c0.04,0.63,0.05,1.26,0,1.89c-0.08,1.25-0.34,2.48-0.77,3.65
					l-0.07-0.01c0.19-1.2,0.31-2.42,0.31-3.64c-0.01-1.22-0.12-2.44-0.42-3.61c-0.28-1.18-0.74-2.32-1.42-3.33
					c-0.34-0.5-0.72-0.98-1.16-1.4c-0.44-0.42-0.93-0.79-1.47-1.06L188.75,264.99z"/>
			</g>
		</g>
	</g>
	<g>
		<g>
			<g>
				<path class="st12" d="M199.54,268.47c0.28,0.26,0.48,0.57,0.67,0.89c0.18,0.33,0.33,0.67,0.44,1.02
					c0.24,0.7,0.35,1.44,0.38,2.17l0,0.55c0,0.18-0.02,0.36-0.04,0.55c-0.03,0.36-0.09,0.72-0.17,1.08c-0.07,0.36-0.19,0.7-0.3,1.05
					c-0.14,0.34-0.28,0.67-0.47,0.99l-0.07-0.01c0.06-0.35,0.13-0.69,0.18-1.04c0.04-0.35,0.1-0.69,0.13-1.04
					c0.03-0.35,0.06-0.7,0.07-1.05c0-0.17,0.02-0.35,0.01-0.52l-0.01-0.52c-0.03-0.7-0.09-1.4-0.23-2.08
					c-0.07-0.34-0.15-0.68-0.26-1.01c-0.1-0.33-0.22-0.66-0.38-0.97L199.54,268.47z"/>
			</g>
		</g>
	</g>
	<g>
		<g>
			<g>
				<path class="st12" d="M204.56,268.9c0.5,0.52,0.85,1.14,1.12,1.78c0.28,0.65,0.46,1.33,0.54,2.04c0.08,0.71,0.06,1.44-0.11,2.14
					c-0.08,0.35-0.21,0.7-0.36,1.02c-0.17,0.32-0.37,0.63-0.62,0.88l-0.06-0.03c0.28-0.61,0.44-1.27,0.52-1.93
					c0.03-0.33,0.05-0.67,0.04-1c-0.01-0.33-0.03-0.67-0.07-1c-0.08-0.67-0.21-1.33-0.39-1.97c-0.09-0.32-0.19-0.64-0.3-0.96
					c-0.11-0.32-0.23-0.63-0.37-0.94L204.56,268.9z"/>
			</g>
		</g>
	</g>
	<g>
		<g>
			<g>
				<path class="st12" d="M255.76,270.92c-0.3,0.42-0.55,0.85-0.77,1.29l-0.17,0.33l-0.15,0.34c-0.1,0.22-0.19,0.45-0.28,0.67
					c-0.16,0.46-0.33,0.91-0.44,1.38c-0.03,0.12-0.07,0.23-0.1,0.35l-0.08,0.35l-0.08,0.35c-0.01,0.06-0.03,0.12-0.04,0.18
					l-0.03,0.18l-0.13,0.72c-0.04,0.24-0.04,0.48-0.08,0.73c-0.09,0.48-0.07,0.97-0.13,1.47c-0.03,0.25-0.01,0.49-0.03,0.74
					l-0.03,0.75c-0.01,0.5,0,1.01-0.05,1.53l-0.07,0.01l-0.25-1.5l-0.06-0.76l-0.03-0.38l-0.02-0.19l0-0.19
					c0-0.51-0.03-1.02,0.03-1.53c0.02-0.25,0.03-0.51,0.06-0.76l0.12-0.76c0.19-1,0.49-1.98,0.94-2.9c0.45-0.91,1.03-1.78,1.8-2.45
					L255.76,270.92z"/>
			</g>
		</g>
	</g>
	<g>
		<g>
			<g>
				<path class="st12" d="M245.63,272.7c-0.24,0.68-0.48,1.3-0.71,1.92c-0.22,0.62-0.43,1.23-0.58,1.83
					c-0.08,0.3-0.14,0.61-0.19,0.91c-0.05,0.31-0.07,0.61-0.09,0.92l0,0.23c0,0.08,0.01,0.16,0.01,0.24c0,0.08,0,0.16,0.01,0.24
					c0.01,0.08,0.01,0.16,0.02,0.24c0.02,0.33,0.1,0.65,0.16,1.01l-0.06,0.03c-0.18-0.3-0.34-0.6-0.45-0.93
					c-0.11-0.33-0.19-0.67-0.22-1.01c-0.03-0.34-0.04-0.69-0.01-1.03c0.03-0.34,0.09-0.68,0.17-1.02c0.17-0.67,0.44-1.31,0.76-1.92
					c0.32-0.61,0.69-1.19,1.13-1.71L245.63,272.7z"/>
			</g>
		</g>
	</g>
	<g>
		<g>
			<g>
				<path class="st12" d="M241.11,279.78c-0.35-0.6-0.54-1.26-0.65-1.93c-0.11-0.67-0.11-1.37,0-2.05c0.11-0.69,0.34-1.38,0.74-1.98
					c0.19-0.3,0.43-0.57,0.7-0.81c0.28-0.22,0.58-0.41,0.92-0.51l0.04,0.05c-0.51,0.4-0.91,0.92-1.19,1.5
					c-0.28,0.58-0.45,1.21-0.55,1.85c-0.11,0.64-0.14,1.29-0.13,1.93c0.01,0.32,0.03,0.65,0.06,0.97c0.03,0.32,0.07,0.65,0.12,0.96
					L241.11,279.78z"/>
			</g>
		</g>
	</g>
	<g>
		<g>
			<g>
				<path class="st14" d="M321.27,175.6c-1.35-0.27-2.74,0.2-3.65,1.23c-0.9,1.03-2.25,2.39-3.31,2.63
					c-1.74,0.4-14.55,7.37-14.95,16.84c-0.4,9.47,3.29,13.65,15.45,15.3s23.27,0.45,22.42-11.51c-0.62-8.78-4.52-15.97-7.67-19.99
					c-1.53-1.94-3.65-3.33-6.04-3.97C322.81,175.95,322.04,175.76,321.27,175.6z"/>
			</g>
		</g>
	</g>
	<g>
		<g>
			<g>
				<path class="st4" d="M326,177.22c0,0-0.48-3.87-2.37-4.27c-1.89-0.4-4.58-1.15-4.73-0.35c-0.15,0.8,0.55,3.1,0.55,3.1"/>
			</g>
		</g>
	</g>
	<g>
		<g>
			<g>
				<path class="st14" d="M319.03,172.36c0,0-2.32-3.87-3.33-6.56c-1.01-2.69-0.49-2.43-0.9-4.86s1.2-1.38,4.67-0.93
					c3.48,0.45,3.1,2.91,6.02,1.76c2.91-1.16,3.03,0.49,5.19-0.11c2.17-0.6,3.29,1.79,1.35,3.81c-1.94,2.02-5.49,3.89-6.03,5.64
					c-0.54,1.76-1.53,2.3-1.53,2.3"/>
			</g>
		</g>
	</g>
	<g>
		<g>
			<g>
				<path class="st14" d="M105.22,187.22c0,0,12.11-16.7,24.03-16.96c0,0,17.04,25.07,20.22,29.37c0,0-18.8,6.5-24.77,16.22
					C124.69,215.84,108.02,188.94,105.22,187.22z"/>
			</g>
		</g>
	</g>
	<g>
		<g>
			<g>
				<path class="st4" d="M149.48,211.98c0.56,0.66,1.05,1.35,1.51,2.07c0.24,0.35,0.45,0.72,0.67,1.08c0.21,0.37,0.42,0.73,0.63,1.1
					c0.2,0.37,0.4,0.75,0.59,1.12c0.18,0.38,0.38,0.76,0.55,1.15c0.35,0.77,0.68,1.56,0.93,2.39l-0.04,0.02l-2.46-4.44l-2.42-4.46
					L149.48,211.98z"/>
			</g>
		</g>
	</g>
	<g>
		<g>
			<g>
				<path class="st4" d="M152.51,211.16c0.68,0.6,1.26,1.3,1.79,2.03c0.27,0.36,0.51,0.74,0.75,1.13c0.12,0.19,0.23,0.39,0.34,0.59
					c0.11,0.2,0.22,0.39,0.32,0.6l0.29,0.61c0.09,0.21,0.18,0.41,0.27,0.62c0.09,0.21,0.16,0.42,0.23,0.64
					c0.07,0.21,0.15,0.43,0.21,0.65c0.25,0.87,0.41,1.77,0.42,2.68l-0.05,0.01c-0.19-0.87-0.43-1.72-0.74-2.55
					c-0.32-0.83-0.67-1.64-1.07-2.43c-0.4-0.79-0.83-1.57-1.29-2.33c-0.46-0.76-0.96-1.5-1.49-2.21L152.51,211.16z"/>
			</g>
		</g>
	</g>
	<g>
		<g>
			<g>
				<circle class="st4" cx="152.22" cy="212.75" r="0.53"/>
			</g>
		</g>
	</g>
	<g>
		<g>
			<g>
				<g>
					<line class="st4" x1="296.68" y1="212.2" x2="291.76" y2="221.36"/>
				</g>
			</g>
		</g>
		<g>
			<g>
				<g>
					<path class="st4" d="M296.7,212.21c-0.25,0.85-0.58,1.66-0.94,2.45c-0.17,0.4-0.37,0.79-0.55,1.18
						c-0.19,0.39-0.4,0.77-0.6,1.16c-0.21,0.38-0.42,0.76-0.64,1.13c-0.23,0.37-0.44,0.75-0.68,1.11c-0.47,0.73-0.96,1.45-1.52,2.13
						l-0.04-0.02l2.44-4.6l2.48-4.57L296.7,212.21z"/>
				</g>
			</g>
		</g>
	</g>
	<g>
		<g>
			<g>
				<path class="st4" d="M293.39,211.85c-0.32,0.75-0.65,1.45-0.97,2.14c-0.32,0.69-0.63,1.39-0.93,2.08
					c-0.16,0.34-0.29,0.69-0.44,1.04c-0.08,0.17-0.14,0.35-0.21,0.53c-0.07,0.18-0.14,0.35-0.2,0.53c-0.07,0.18-0.13,0.36-0.2,0.54
					l-0.19,0.55l-0.1,0.27c-0.03,0.09-0.05,0.19-0.09,0.28c-0.06,0.19-0.13,0.38-0.21,0.57l-0.07,0c0.05-0.78,0.14-1.57,0.34-2.33
					c0.02-0.1,0.04-0.19,0.07-0.29l0.08-0.28c0.06-0.19,0.11-0.38,0.17-0.56l0.2-0.55c0.06-0.19,0.15-0.36,0.22-0.55
					c0.31-0.72,0.68-1.42,1.09-2.09c0.41-0.67,0.86-1.31,1.38-1.91L293.39,211.85z"/>
			</g>
		</g>
	</g>
	<g>
		<g>
			<g>
				<circle class="st4" cx="294.58" cy="213.1" r="0.62"/>
			</g>
		</g>
	</g>
	<g>
		<g>
			<g>
				<path class="st5" d="M216.25,93.89c2.78,3.92,11.03,13.52,23.98,11.41c0,0,3.65-15.04-4.81-22.71c0,0-8.55-7.77-18.78-3.46
					c-5.26,2.22-9.04,6.96-10.22,12.55c-0.68,3.19-1.06,7.5-0.38,12.84c0,0,1.78-7.06,7.3-11.1
					C214.29,92.75,215.59,92.95,216.25,93.89z"/>
			</g>
		</g>
	</g>
	<g>
		<g>
			<g>
				<path class="st12" d="M191.92,279.47c0,0-8.82-5.38-7.18-15.02c0,0-1.35,1.6-1.58,3.91c-0.2,1.98-0.2,6.64,3.48,9.36
					C186.64,277.72,188.73,279.16,191.92,279.47z"/>
			</g>
		</g>
	</g>
	<g>
		<g>
			<g>
				<path class="st12" d="M259.65,269.82c0,0,0.84,4-1.22,7.68c0,0-1.67,3.21-3.83,4.29c0,0,0.76,0.04,1.69-0.39
					c0.93-0.43,5.16-0.89,4.53-11.84L259.65,269.82z"/>
			</g>
		</g>
	</g>
	<g>
		<g>
			<g>
				<path class="st5" d="M116.98,197.24l-0.77-0.88c0.31-0.27,7.71-6.77,15.27-9.82l0.44,1.08
					C124.55,190.6,117.06,197.17,116.98,197.24z"/>
			</g>
		</g>
	</g>
	<g>
		<g>
			<g>
				<path class="st5" d="M118.7,199.48l-0.73-0.91c0.35-0.28,8.75-6.97,15.2-9.67l0.45,1.08
					C127.32,192.61,118.78,199.41,118.7,199.48z"/>
			</g>
		</g>
	</g>
	<g>
		<g>
			<g>
				<path class="st5" d="M120.51,201.82l-0.73-0.91c0.35-0.28,8.71-6.98,15.03-9.67l0.46,1.08
					C129.09,194.95,120.6,201.75,120.51,201.82z"/>
			</g>
		</g>
	</g>
	<g>
		<g>
			<g>
				<path class="st5" d="M122.52,203.92l-0.78-0.87c0.31-0.28,7.55-6.79,14.21-9.22l0.4,1.1
					C129.91,197.28,122.59,203.86,122.52,203.92z"/>
			</g>
		</g>
	</g>
	<g>
		<g>
			<g>
				<path class="st15" d="M133.68,184.79"/>
			</g>
		</g>
	</g>
	<g>
		<g>
			<g>
				<path class="st15" d="M116.71,195.03"/>
			</g>
		</g>
	</g>
	<g>
		<g>
			<g>
				<path class="st5" d="M114.84,194.18l-0.86-0.8c0.11-0.12,2.69-2.87,9.12-6.96l0.63,0.99
					C117.42,191.43,114.86,194.16,114.84,194.18z"/>
			</g>
		</g>
	</g>
	<g>
		<g>
			<g>
				<path class="st5" d="M312.99,200.07l2.29-2.09c0.24,0.67,0.63,1.2,1.18,1.6c0.55,0.39,1.22,0.62,2,0.69l0.38-4.72
					c-1.83-0.96-3.11-1.88-3.83-2.76c-0.72-0.88-1.03-1.89-0.94-3.02c0.1-1.28,0.7-2.33,1.79-3.12c1.09-0.8,2.48-1.19,4.16-1.19
					l0.11-1.39l1.14,0.09l-0.11,1.41c0.93,0.11,1.75,0.37,2.44,0.78c0.69,0.41,1.28,1,1.78,1.77l-2.41,1.85
					c-0.24-0.48-0.52-0.84-0.83-1.1c-0.32-0.26-0.72-0.44-1.21-0.54l-0.36,4.45c1.66,0.83,2.85,1.7,3.59,2.62
					c0.74,0.92,1.06,1.95,0.97,3.07c-0.12,1.43-0.69,2.57-1.73,3.43c-1.04,0.85-2.38,1.29-4.04,1.3l-0.16,1.92l-1.14-0.09l0.15-1.89
					c-1.3-0.15-2.4-0.48-3.3-1C314.05,201.61,313.4,200.92,312.99,200.07z M319.81,188.23c-0.58,0.07-1.06,0.27-1.42,0.6
					c-0.36,0.32-0.57,0.72-0.6,1.19c-0.04,0.44,0.09,0.84,0.37,1.21c0.28,0.37,0.72,0.71,1.33,1.02L319.81,188.23z M319.62,200.24
					c0.57-0.11,1.03-0.34,1.38-0.69c0.35-0.35,0.55-0.77,0.59-1.28c0.04-0.44-0.07-0.82-0.32-1.15c-0.25-0.33-0.69-0.66-1.31-0.99
					L319.62,200.24z"/>
			</g>
		</g>
	</g>
	<g>
		<g>
			<g>
				<g>
					<path class="st5" d="M113.71,189.56c-0.21,0.2-0.32,0.3-0.53,0.49c-0.6-0.18-0.9-0.27-1.51-0.43c0.38,0.39,0.57,0.58,0.95,0.97
						c-0.18,0.18-0.27,0.26-0.44,0.44c-0.83-0.82-1.24-1.23-2.07-2.05c0.27-0.27,0.4-0.4,0.68-0.67c0.27-0.26,0.52-0.41,0.75-0.44
						c0.23-0.03,0.44,0.06,0.63,0.26c0.14,0.15,0.21,0.31,0.21,0.5c0.01,0.19-0.05,0.36-0.18,0.51
						C112.81,189.31,113.11,189.39,113.71,189.56z M111.46,189.4c0.03-0.03,0.04-0.04,0.07-0.07c0.19-0.18,0.29-0.32,0.32-0.42
						c0.02-0.1-0.01-0.2-0.11-0.3c-0.1-0.1-0.2-0.15-0.31-0.13c-0.11,0.02-0.25,0.12-0.43,0.3c-0.03,0.03-0.04,0.04-0.07,0.07
						C111.14,189.07,111.24,189.18,111.46,189.4z"/>
				</g>
			</g>
			<g>
				<g>
					<path class="st5" d="M113.98,189.32c-0.78-0.86-1.18-1.29-1.96-2.15c0.54-0.49,0.81-0.73,1.37-1.21
						c0.14,0.16,0.2,0.24,0.34,0.4c-0.35,0.3-0.52,0.45-0.87,0.75c0.16,0.18,0.24,0.27,0.4,0.45c0.34-0.3,0.51-0.45,0.86-0.75
						c0.14,0.16,0.21,0.24,0.34,0.4c-0.34,0.29-0.51,0.44-0.85,0.74c0.19,0.22,0.29,0.33,0.48,0.55c0.33-0.29,0.5-0.44,0.84-0.73
						c0.14,0.16,0.21,0.24,0.34,0.4C114.75,188.62,114.49,188.85,113.98,189.32z"/>
				</g>
			</g>
			<g>
				<g>
					<path class="st5" d="M115.36,187.62c0.01-0.21,0.01-0.32,0.02-0.53c0.1,0.05,0.21,0.07,0.33,0.06
						c0.12-0.01,0.22-0.06,0.32-0.14c0.11-0.09,0.18-0.19,0.21-0.3c0.02-0.11,0-0.21-0.07-0.3c-0.09-0.11-0.28-0.13-0.6-0.05
						c-0.1,0.02-0.18,0.04-0.24,0.06c-0.29,0.06-0.51,0.08-0.67,0.05c-0.16-0.03-0.3-0.12-0.41-0.25c-0.15-0.18-0.2-0.4-0.15-0.65
						c0.06-0.25,0.21-0.47,0.46-0.68c0.15-0.12,0.29-0.19,0.44-0.23c0.14-0.04,0.3-0.03,0.46,0.01c-0.04,0.21-0.05,0.31-0.09,0.52
						c-0.09-0.04-0.18-0.05-0.26-0.04c-0.09,0.01-0.17,0.06-0.25,0.12c-0.1,0.08-0.16,0.17-0.19,0.27c-0.02,0.1,0,0.19,0.06,0.26
						c0.1,0.12,0.31,0.13,0.63,0.03c0.06-0.02,0.11-0.03,0.15-0.04c0.27-0.07,0.5-0.09,0.68-0.05c0.18,0.04,0.33,0.13,0.44,0.27
						c0.17,0.22,0.22,0.45,0.18,0.69c-0.05,0.24-0.19,0.46-0.44,0.66c-0.17,0.14-0.35,0.23-0.52,0.27
						C115.68,187.69,115.51,187.68,115.36,187.62z"/>
				</g>
			</g>
			<g>
				<g>
					<path class="st5" d="M117.95,182.49c0.41,0.6,0.61,0.9,1.02,1.5c0.22,0.33,0.3,0.63,0.24,0.91c-0.06,0.28-0.27,0.54-0.61,0.78
						c-0.35,0.25-0.66,0.36-0.94,0.33c-0.28-0.03-0.55-0.2-0.79-0.52c-0.44-0.58-0.65-0.87-1.09-1.45c0.21-0.16,0.32-0.24,0.53-0.39
						c0.41,0.55,0.61,0.83,1.02,1.38c0.14,0.19,0.29,0.31,0.45,0.34c0.16,0.03,0.32-0.01,0.5-0.14c0.17-0.13,0.27-0.27,0.29-0.43
						c0.02-0.16-0.04-0.34-0.17-0.54c-0.39-0.56-0.59-0.84-0.98-1.41C117.62,182.71,117.73,182.63,117.95,182.49z"/>
				</g>
			</g>
			<g>
				<g>
					<path class="st5" d="M119.91,184.68c-0.5-1.07-0.74-1.6-1.22-2.68c0.23-0.15,0.35-0.23,0.58-0.38
						c0.57,0.45,0.85,0.68,1.41,1.14c0.03,0.02,0.07,0.06,0.12,0.11c0.05,0.05,0.1,0.11,0.16,0.18c-0.04-0.08-0.07-0.16-0.1-0.22
						c-0.03-0.07-0.04-0.12-0.05-0.15c-0.16-0.71-0.23-1.06-0.38-1.77c0.23-0.14,0.35-0.21,0.59-0.35c0.75,0.91,1.12,1.37,1.85,2.29
						c-0.21,0.12-0.31,0.18-0.51,0.3c-0.43-0.56-0.64-0.84-1.08-1.4c-0.08-0.1-0.14-0.18-0.18-0.24c-0.04-0.05-0.07-0.11-0.1-0.15
						c-0.02-0.03-0.03-0.05-0.03-0.06c-0.01-0.01-0.01-0.03-0.02-0.04c0.04,0.11,0.07,0.2,0.1,0.28c0.03,0.08,0.04,0.14,0.05,0.19
						c0.16,0.77,0.24,1.16,0.42,1.92c-0.12,0.07-0.18,0.11-0.3,0.18c-0.6-0.5-0.9-0.75-1.52-1.24c-0.01-0.01-0.05-0.05-0.11-0.1
						c-0.06-0.06-0.14-0.14-0.25-0.25c0.02,0.03,0.03,0.04,0.05,0.07c0.07,0.11,0.15,0.26,0.24,0.44c0,0,0,0,0,0.01
						c0.31,0.64,0.46,0.96,0.77,1.59C120.21,184.48,120.11,184.55,119.91,184.68z"/>
				</g>
			</g>
			<g>
				<g>
					<path class="st5" d="M123.23,182.65c-0.57-1.02-0.85-1.52-1.42-2.54c0.64-0.36,0.96-0.53,1.61-0.86
						c0.1,0.19,0.14,0.28,0.24,0.47c-0.41,0.21-0.61,0.32-1.02,0.54c0.11,0.21,0.17,0.32,0.29,0.53c0.4-0.22,0.6-0.32,1.01-0.53
						c0.1,0.19,0.15,0.28,0.24,0.47c-0.4,0.21-0.6,0.31-1,0.53c0.14,0.26,0.21,0.38,0.35,0.64c0.39-0.21,0.59-0.32,0.98-0.52
						c0.1,0.19,0.15,0.28,0.24,0.47C124.13,182.15,123.83,182.31,123.23,182.65z"/>
				</g>
			</g>
		</g>
	</g>
	<g class="st6">
		<g>
			<g>
				<path class="st4" d="M210.9,82.96c0,0,5.69-3.81,24.54-0.37c0,0,0.96-1.8,1.13-2.17C236.74,80.05,222.15,75.89,210.9,82.96z"/>
			</g>
		</g>
	</g>
	<g>
		<g>
			<g>
				<path class="st4" d="M223.02,112.97c0.06,0.25,0.09,0.49,0.11,0.73c0.02,0.24,0.04,0.48,0.04,0.71c0.01,0.47-0.02,0.94-0.07,1.4
					c-0.05,0.46-0.13,0.91-0.23,1.37c-0.1,0.45-0.22,0.9-0.37,1.34l-0.65-0.79c0.2,0.02,0.4,0.05,0.61,0.09
					c0.2,0.04,0.4,0.08,0.61,0.13c0.2,0.05,0.4,0.11,0.61,0.17c0.2,0.07,0.4,0.14,0.61,0.23v0.08c-0.4,0.01-0.81,0.02-1.21,0.02
					l-1.21,0.01l-0.09,0l0.02-0.09l0.27-1.36l0.29-1.35l0.29-1.35c0.09-0.45,0.2-0.9,0.3-1.35L223.02,112.97z"/>
			</g>
		</g>
	</g>
	<g>
		<g>
			<g>
				<path class="st4" d="M220.57,123.01c0.72,0.14,1.37,0.26,1.99,0.32c0.62,0.06,1.19,0.06,1.73-0.04c0.54-0.11,1.05-0.3,1.57-0.61
					c0.52-0.31,1.03-0.72,1.62-1.17l0.07,0.04l-0.26,0.45c-0.1,0.14-0.19,0.29-0.29,0.43c-0.11,0.13-0.21,0.27-0.33,0.4
					c-0.06,0.06-0.12,0.13-0.18,0.19l-0.19,0.18c-0.52,0.46-1.16,0.79-1.85,0.93c-0.69,0.12-1.4,0.05-2.06-0.14
					c-0.67-0.19-1.3-0.49-1.86-0.9L220.57,123.01z"/>
			</g>
		</g>
	</g>
	<g>
		<g>
			<g>
				<path class="st4" d="M228.73,112.36c0.18,0.21,0.36,0.37,0.55,0.47c0.18,0.1,0.36,0.15,0.54,0.19c0.04,0.01,0.09,0.02,0.14,0.02
					l0.14,0.02c0.1,0,0.18,0.03,0.29,0.02c0.05,0,0.1,0.01,0.15,0.01c0.05,0.01,0.1,0,0.15,0l0.15,0.01c0.05,0,0.1,0,0.15-0.01
					c0.39-0.01,0.73-0.03,1.08-0.16c0.35-0.12,0.73-0.36,1.14-0.75l0.08,0.02c-0.06,0.25-0.16,0.49-0.3,0.71
					c-0.14,0.22-0.32,0.41-0.53,0.56c-0.42,0.32-0.95,0.44-1.46,0.46c-0.06,0-0.13,0-0.19,0l-0.19-0.02
					c-0.13-0.01-0.25-0.03-0.38-0.06c-0.13-0.02-0.25-0.07-0.37-0.1c-0.12-0.05-0.24-0.09-0.35-0.16c-0.23-0.13-0.43-0.3-0.58-0.51
					c-0.15-0.22-0.24-0.46-0.27-0.73L228.73,112.36z"/>
			</g>
		</g>
	</g>
	<g>
		<g>
			<g>
				<path class="st4" d="M211.77,112.7c0.18,0.21,0.36,0.37,0.55,0.46c0.18,0.1,0.36,0.15,0.54,0.19c0.04,0.01,0.09,0.02,0.14,0.02
					l0.14,0.02c0.1,0,0.18,0.03,0.29,0.02c0.05,0,0.1,0.01,0.15,0.01c0.05,0.01,0.1,0,0.15,0l0.15,0.01c0.05,0,0.1,0,0.15-0.01
					c0.39-0.01,0.73-0.03,1.08-0.16c0.35-0.12,0.73-0.36,1.14-0.75l0.08,0.02c-0.06,0.25-0.16,0.49-0.3,0.71
					c-0.14,0.22-0.32,0.41-0.53,0.56c-0.42,0.32-0.95,0.44-1.46,0.46c-0.06,0-0.13,0-0.19,0l-0.19-0.02
					c-0.13-0.01-0.25-0.03-0.38-0.06c-0.13-0.02-0.25-0.07-0.37-0.1c-0.12-0.05-0.24-0.09-0.35-0.16c-0.23-0.13-0.43-0.3-0.58-0.51
					c-0.15-0.22-0.24-0.46-0.27-0.73L211.77,112.7z"/>
			</g>
		</g>
	</g>
	<g>
		<g>
			<g>
				<path class="st4" d="M211.53,107.48c0.11-0.53,0.49-0.93,0.91-1.2c0.43-0.27,0.93-0.42,1.42-0.45c0.12,0,0.25-0.01,0.37-0.01
					c0.12,0.01,0.24,0.02,0.36,0.04c0.12,0.02,0.24,0.04,0.35,0.08c0.12,0.03,0.23,0.07,0.34,0.11c0.22,0.09,0.43,0.21,0.63,0.34
					c0.1,0.07,0.19,0.15,0.28,0.24c0.09,0.09,0.18,0.17,0.26,0.28l-0.03,0.08l-0.62-0.16c-0.21-0.04-0.42-0.09-0.63-0.12
					c-0.21-0.02-0.42-0.06-0.64-0.06c-0.11,0-0.21-0.01-0.32-0.01l-0.32,0.02c-0.42,0.03-0.84,0.1-1.24,0.24
					c-0.1,0.04-0.2,0.07-0.29,0.12l-0.14,0.07l-0.14,0.08c-0.18,0.1-0.36,0.22-0.51,0.37L211.53,107.48z"/>
			</g>
		</g>
	</g>
	<g>
		<g>
			<g>
				<path class="st4" d="M228.39,107.72c0.11-0.53,0.49-0.93,0.91-1.2c0.43-0.27,0.93-0.42,1.42-0.45c0.12,0,0.25-0.01,0.37-0.01
					c0.12,0.01,0.24,0.02,0.36,0.04c0.12,0.02,0.24,0.04,0.35,0.08c0.12,0.03,0.23,0.07,0.34,0.11c0.22,0.09,0.43,0.21,0.63,0.34
					c0.1,0.07,0.19,0.15,0.28,0.24c0.09,0.09,0.18,0.17,0.26,0.28l-0.03,0.08l-0.62-0.16c-0.21-0.04-0.42-0.09-0.63-0.12
					c-0.21-0.02-0.42-0.06-0.64-0.06c-0.11,0-0.21-0.01-0.32-0.01l-0.32,0.02c-0.42,0.03-0.84,0.1-1.24,0.24
					c-0.1,0.04-0.2,0.07-0.29,0.12l-0.14,0.07l-0.14,0.08c-0.18,0.1-0.36,0.22-0.51,0.37L228.39,107.72z"/>
			</g>
		</g>
	</g>
</g>
</svg>
