<svg width="145" height="24" viewBox="0 0 145 24" fill="none" xmlns="http://www.w3.org/2000/svg">
<g clip-path="url(#clip0_1_147)">
<path d="M24.2707 8.73748C24.194 8.49965 24.0489 8.28967 23.8537 8.13371C23.6584 7.97775 23.4216 7.88271 23.1726 7.86043L16.2456 7.2314L13.5064 0.820144C13.3044 0.350304 12.8445 0.0462646 12.3334 0.0462646C11.8224 0.0462646 11.3624 0.35035 11.1604 0.821315L8.42127 7.23145L1.49311 7.86043C1.24449 7.8832 1.00802 7.97845 0.813013 8.13435C0.618011 8.29026 0.473054 8.49997 0.396116 8.73748C0.238097 9.2235 0.384022 9.75653 0.76911 10.0925L6.00518 14.6845L4.46117 21.4858C4.3482 21.9859 4.54227 22.5028 4.95722 22.8027C5.18021 22.9639 5.44116 23.0459 5.70428 23.0459C5.93116 23.0459 6.15617 22.9847 6.3582 22.8639L12.3334 19.2927L18.3065 22.8639C18.7435 23.1269 19.2945 23.1028 19.7085 22.8027C19.9112 22.656 20.0663 22.453 20.1545 22.2188C20.2427 21.9847 20.2601 21.7298 20.2046 21.4858L18.6606 14.6845L23.8966 10.0935C24.085 9.92896 24.2209 9.71274 24.2874 9.47167C24.3539 9.23059 24.3481 8.97529 24.2707 8.73748Z" fill="#FFC107"/>
</g>
<g clip-path="url(#clip1_1_147)">
<path d="M54.2707 8.73748C54.194 8.49965 54.0489 8.28967 53.8537 8.13371C53.6584 7.97775 53.4216 7.88271 53.1726 7.86043L46.2456 7.2314L43.5064 0.820144C43.3044 0.350304 42.8445 0.0462646 42.3334 0.0462646C41.8224 0.0462646 41.3624 0.35035 41.1604 0.821315L38.4213 7.23145L31.4931 7.86043C31.2445 7.8832 31.008 7.97845 30.813 8.13435C30.618 8.29026 30.4731 8.49997 30.3961 8.73748C30.2381 9.2235 30.384 9.75653 30.7691 10.0925L36.0052 14.6845L34.4612 21.4858C34.3482 21.9859 34.5423 22.5028 34.9572 22.8027C35.1802 22.9639 35.4412 23.0459 35.7043 23.0459C35.9312 23.0459 36.1562 22.9847 36.3582 22.8639L42.3334 19.2927L48.3065 22.8639C48.7435 23.1269 49.2945 23.1028 49.7085 22.8027C49.9112 22.656 50.0663 22.453 50.1545 22.2188C50.2427 21.9847 50.2601 21.7298 50.2046 21.4858L48.6606 14.6845L53.8966 10.0935C54.085 9.92896 54.2209 9.71274 54.2874 9.47167C54.3539 9.23059 54.3481 8.97529 54.2707 8.73748Z" fill="#FFC107"/>
</g>
<g clip-path="url(#clip2_1_147)">
<path d="M84.2707 8.73748C84.194 8.49965 84.0489 8.28967 83.8537 8.13371C83.6584 7.97775 83.4216 7.88271 83.1726 7.86043L76.2456 7.2314L73.5064 0.820144C73.3044 0.350304 72.8445 0.0462646 72.3334 0.0462646C71.8224 0.0462646 71.3624 0.35035 71.1604 0.821315L68.4213 7.23145L61.4931 7.86043C61.2445 7.8832 61.008 7.97845 60.813 8.13435C60.618 8.29026 60.4731 8.49997 60.3961 8.73748C60.2381 9.2235 60.384 9.75653 60.7691 10.0925L66.0052 14.6845L64.4612 21.4858C64.3482 21.9859 64.5423 22.5028 64.9572 22.8027C65.1802 22.9639 65.4412 23.0459 65.7043 23.0459C65.9312 23.0459 66.1562 22.9847 66.3582 22.8639L72.3334 19.2927L78.3065 22.8639C78.7435 23.1269 79.2945 23.1028 79.7085 22.8027C79.9112 22.656 80.0663 22.453 80.1545 22.2188C80.2427 21.9847 80.2601 21.7298 80.2046 21.4858L78.6606 14.6845L83.8966 10.0935C84.085 9.92896 84.2209 9.71274 84.2874 9.47167C84.3539 9.23059 84.3481 8.97529 84.2707 8.73748Z" fill="#FFC107"/>
</g>
<g clip-path="url(#clip3_1_147)">
<path d="M114.271 8.73748C114.194 8.49965 114.049 8.28967 113.854 8.13371C113.658 7.97775 113.422 7.88271 113.173 7.86043L106.246 7.2314L103.506 0.820144C103.304 0.350304 102.844 0.0462646 102.333 0.0462646C101.822 0.0462646 101.362 0.35035 101.16 0.821315L98.4213 7.23145L91.4931 7.86043C91.2445 7.8832 91.008 7.97845 90.813 8.13435C90.618 8.29026 90.4731 8.49997 90.3961 8.73748C90.2381 9.2235 90.384 9.75653 90.7691 10.0925L96.0052 14.6845L94.4612 21.4858C94.3482 21.9859 94.5423 22.5028 94.9572 22.8027C95.1802 22.9639 95.4412 23.0459 95.7043 23.0459C95.9312 23.0459 96.1562 22.9847 96.3582 22.8639L102.333 19.2927L108.306 22.8639C108.744 23.1269 109.295 23.1028 109.709 22.8027C109.911 22.656 110.066 22.453 110.154 22.2188C110.243 21.9847 110.26 21.7298 110.205 21.4858L108.661 14.6845L113.897 10.0935C114.085 9.92896 114.221 9.71274 114.287 9.47167C114.354 9.23059 114.348 8.97529 114.271 8.73748Z" fill="#FFC107"/>
</g>
<g clip-path="url(#clip4_1_147)">
<path d="M144.271 8.73748C144.194 8.49965 144.049 8.28967 143.854 8.13371C143.658 7.97775 143.422 7.88271 143.173 7.86043L136.246 7.2314L133.506 0.820144C133.304 0.350304 132.844 0.0462646 132.333 0.0462646C131.822 0.0462646 131.362 0.35035 131.16 0.821315L128.421 7.23145L121.493 7.86043C121.244 7.8832 121.008 7.97845 120.813 8.13435C120.618 8.29026 120.473 8.49997 120.396 8.73748C120.238 9.2235 120.384 9.75653 120.769 10.0925L126.005 14.6845L124.461 21.4858C124.348 21.9859 124.542 22.5028 124.957 22.8027C125.18 22.9639 125.441 23.0459 125.704 23.0459C125.931 23.0459 126.156 22.9847 126.358 22.8639L132.333 19.2927L138.306 22.8639C138.744 23.1269 139.295 23.1028 139.709 22.8027C139.911 22.656 140.066 22.453 140.154 22.2188C140.243 21.9847 140.26 21.7298 140.205 21.4858L138.661 14.6845L143.897 10.0935C144.085 9.92896 144.221 9.71274 144.287 9.47167C144.354 9.23059 144.348 8.97529 144.271 8.73748Z" fill="#FFC107"/>
<g clip-path="url(#clip5_1_147)">
<path d="M144.271 8.73748C144.194 8.49965 144.049 8.28967 143.854 8.13371C143.658 7.97775 143.422 7.88271 143.173 7.86043L136.246 7.2314L133.506 0.820144C133.304 0.350304 132.844 0.0462646 132.333 0.0462646C131.822 0.0462646 131.362 0.35035 131.16 0.821315L128.421 7.23145L121.493 7.86043C121.244 7.8832 121.008 7.97845 120.813 8.13435C120.618 8.29026 120.473 8.49997 120.396 8.73748C120.238 9.2235 120.384 9.75653 120.769 10.0925L126.005 14.6845L124.461 21.4858C124.348 21.9859 124.542 22.5028 124.957 22.8027C125.18 22.9639 125.441 23.0459 125.704 23.0459C125.931 23.0459 126.156 22.9847 126.358 22.8639L132.333 19.2927L138.306 22.8639C138.744 23.1269 139.295 23.1028 139.709 22.8027C139.911 22.656 140.066 22.453 140.154 22.2188C140.243 21.9847 140.26 21.7298 140.205 21.4858L138.661 14.6845L143.897 10.0935C144.085 9.92896 144.221 9.71274 144.287 9.47167C144.354 9.23059 144.348 8.97529 144.271 8.73748Z" fill="#FFC107"/>
</g>
</g>
<defs>
<clipPath id="clip0_1_147">
<rect width="24" height="24" fill="white" transform="translate(0.333313)"/>
</clipPath>
<clipPath id="clip1_1_147">
<rect width="24" height="24" fill="white" transform="translate(30.3333)"/>
</clipPath>
<clipPath id="clip2_1_147">
<rect width="24" height="24" fill="white" transform="translate(60.3333)"/>
</clipPath>
<clipPath id="clip3_1_147">
<rect width="24" height="24" fill="white" transform="translate(90.3333)"/>
</clipPath>
<clipPath id="clip4_1_147">
<rect width="24" height="24" fill="white" transform="translate(120.333)"/>
</clipPath>
<clipPath id="clip5_1_147">
<rect width="12" height="24" fill="white" transform="translate(120.333)"/>
</clipPath>
</defs>
</svg>
