<svg width="293" height="175" viewBox="0 0 293 175" fill="none" xmlns="http://www.w3.org/2000/svg">
<path d="M123.667 39H65.6667C62.9052 39 60.6667 41.2386 60.6667 44V50C60.6667 52.7614 62.9052 55 65.6667 55H123.667C126.428 55 128.667 52.7614 128.667 50V44C128.667 41.2386 126.428 39 123.667 39Z" fill="#EFF1F3"/>
<path d="M243.667 69H185.667C182.905 69 180.667 71.2386 180.667 74V80C180.667 82.7614 182.905 85 185.667 85H243.667C246.428 85 248.667 82.7614 248.667 80V74C248.667 71.2386 246.428 69 243.667 69Z" fill="#EFF1F3"/>
<path d="M177.667 107H56.6667C53.9052 107 51.6667 109.239 51.6667 112V117C51.6667 119.761 53.9052 122 56.6667 122H177.667C180.428 122 182.667 119.761 182.667 117V112C182.667 109.239 180.428 107 177.667 107Z" fill="#EFF1F3"/>
<path d="M239.667 123H174.667C171.905 123 169.667 125.239 169.667 128V133C169.667 135.761 171.905 138 174.667 138H239.667C242.428 138 244.667 135.761 244.667 133V128C244.667 125.239 242.428 123 239.667 123Z" fill="#EFF1F3"/>
<g filter="url(#filter0_d_1_75)">
<path d="M146.727 132.12C172.165 132.12 192.787 111.499 192.787 86.0602C192.787 60.6219 172.165 40 146.727 40C121.288 40 100.666 60.6219 100.666 86.0602C100.666 111.499 121.288 132.12 146.727 132.12Z" fill="white"/>
<path d="M191.348 86.0602C191.348 110.704 171.371 130.681 146.727 130.681C122.084 130.681 102.106 110.704 102.106 86.0602C102.106 61.4168 122.084 41.4394 146.727 41.4394C171.371 41.4394 191.348 61.4168 191.348 86.0602Z" stroke="white" stroke-width="2.87876"/>
</g>
<mask id="mask0_1_75" style="mask-type:luminance" maskUnits="userSpaceOnUse" x="123" y="62" width="48" height="47">
<path d="M170.004 62.1384H123.462V108.681H170.004V62.1384Z" fill="white"/>
</mask>
<g mask="url(#mask0_1_75)">
<path d="M152.551 74.7438C152.037 74.7438 151.543 74.5395 151.18 74.1758C150.816 73.8121 150.612 73.3189 150.612 72.8046V69.8956H142.855V72.8046C142.855 73.3189 142.65 73.8121 142.287 74.1758C141.923 74.5395 141.43 74.7438 140.915 74.7438C140.401 74.7438 139.908 74.5395 139.544 74.1758C139.18 73.8121 138.976 73.3189 138.976 72.8046V69.8956C138.976 67.7566 140.716 66.0171 142.855 66.0171H150.612C152.751 66.0171 154.49 67.7566 154.49 69.8956V72.8046C154.49 73.3189 154.286 73.8121 153.922 74.1758C153.559 74.5395 153.065 74.7438 152.551 74.7438ZM148.11 91.9646C147.178 92.285 146.163 92.2713 145.24 91.9258L123.462 84.6729V99.4696C123.462 102.417 125.847 104.803 128.795 104.803H164.672C167.619 104.803 170.005 102.417 170.005 99.4696V84.6729L148.11 91.9646Z" fill="url(#paint0_linear_1_75)"/>
<path d="M152.551 74.7438C152.037 74.7438 151.543 74.5395 151.18 74.1758C150.816 73.8121 150.612 73.3189 150.612 72.8046V69.8956H142.855V72.8046C142.855 73.3189 142.65 73.8121 142.287 74.1758C141.923 74.5395 141.43 74.7438 140.915 74.7438C140.401 74.7438 139.908 74.5395 139.544 74.1758C139.18 73.8121 138.976 73.3189 138.976 72.8046V69.8956C138.976 67.7566 140.716 66.0171 142.855 66.0171H150.612C152.751 66.0171 154.49 67.7566 154.49 69.8956V72.8046C154.49 73.3189 154.286 73.8121 153.922 74.1758C153.559 74.5395 153.065 74.7438 152.551 74.7438ZM148.11 91.9646C147.178 92.285 146.163 92.2713 145.24 91.9258L123.462 84.6729V99.4696C123.462 102.417 125.847 104.803 128.795 104.803H164.672C167.619 104.803 170.005 102.417 170.005 99.4696V84.6729L148.11 91.9646Z" fill="url(#paint1_linear_1_75)"/>
<path d="M170.005 77.1681V81.609L147.199 89.211C147.044 89.2692 146.888 89.2886 146.733 89.2886C146.578 89.2886 146.423 89.2692 146.268 89.211L123.462 81.609V77.1681C123.462 74.2204 125.847 71.8351 128.795 71.8351H164.672C167.619 71.8351 170.005 74.2204 170.005 77.1681Z" fill="url(#paint2_linear_1_75)"/>
<path d="M170.005 77.1681V81.609L147.199 89.211C147.044 89.2692 146.888 89.2886 146.733 89.2886C146.578 89.2886 146.423 89.2692 146.268 89.211L123.462 81.609V77.1681C123.462 74.2204 125.847 71.8351 128.795 71.8351H164.672C167.619 71.8351 170.005 74.2204 170.005 77.1681Z" fill="url(#paint3_linear_1_75)"/>
</g>
<path d="M72.9555 95.2252L67.3475 89.4839C66.6649 88.7999 65.7075 88.3905 64.6142 88.3905H56.5435C54.4929 88.2532 52.7155 90.0305 52.7155 92.0812V111.221C52.7147 111.724 52.8131 112.223 53.0053 112.687C53.1974 113.152 53.4795 113.575 53.8352 113.93C54.191 114.286 54.6135 114.568 55.0785 114.76C55.5435 114.952 56.0418 115.05 56.5449 115.049H70.2195C70.7226 115.05 71.2209 114.952 71.6859 114.76C72.1509 114.568 72.5734 114.286 72.9292 113.93C73.2849 113.575 73.567 113.152 73.7591 112.687C73.9513 112.223 74.0497 111.724 74.0489 111.221V97.8239C74.0489 96.8665 73.6382 95.9092 72.9555 95.2252ZM59.2795 99.1905H63.3822C63.9289 99.1905 64.4755 99.6012 64.4755 100.284C64.4755 100.968 64.0662 101.377 63.3822 101.377H59.2795C59.1354 101.379 58.9923 101.352 58.8588 101.298C58.7253 101.244 58.604 101.163 58.502 101.061C58.4001 100.959 58.3197 100.838 58.2654 100.705C58.2112 100.571 58.1842 100.428 58.1862 100.284C58.1862 99.5999 58.7329 99.1905 59.2795 99.1905ZM67.4849 106.847H59.2795C58.7329 106.847 58.1862 106.436 58.1862 105.753C58.1862 105.071 58.5955 104.66 59.2795 104.66H67.4849C68.0315 104.66 68.5782 105.069 68.5782 105.753C68.5782 106.437 68.0315 106.847 67.4849 106.847Z" fill="#80ACEF"/>
<path d="M238.956 56.2252L233.348 50.4839C232.666 49.7999 231.708 49.3905 230.615 49.3905H222.544C220.494 49.2532 218.716 51.0305 218.716 53.0812V72.2212C218.715 72.7242 218.814 73.2225 219.006 73.6874C219.198 74.1524 219.48 74.5748 219.836 74.9304C220.192 75.2861 220.614 75.568 221.079 75.76C221.544 75.952 222.043 76.0502 222.546 76.0492H236.22C236.723 76.0502 237.222 75.952 237.687 75.76C238.152 75.568 238.574 75.2861 238.93 74.9304C239.286 74.5748 239.568 74.1524 239.76 73.6874C239.952 73.2225 240.051 72.7242 240.05 72.2212V58.8239C240.05 57.8665 239.639 56.9092 238.956 56.2252ZM225.28 60.1905H229.383C229.93 60.1905 230.476 60.6012 230.476 61.2839C230.476 61.9679 230.067 62.3772 229.383 62.3772H225.28C225.136 62.3792 224.993 62.3522 224.86 62.298C224.726 62.2437 224.605 62.1633 224.503 62.0614C224.401 61.9594 224.32 61.8381 224.266 61.7046C224.212 61.571 224.185 61.428 224.187 61.2839C224.187 60.5999 224.734 60.1905 225.28 60.1905ZM233.486 67.8465H225.28C224.734 67.8465 224.187 67.4359 224.187 66.7532C224.187 66.0705 224.596 65.6599 225.28 65.6599H233.486C234.032 65.6599 234.579 66.0692 234.579 66.7532C234.579 67.4372 234.032 67.8465 233.486 67.8465Z" fill="#2C77E8"/>
<defs>
<filter id="filter0_d_1_75" x="77.6363" y="16.97" width="138.181" height="138.18" filterUnits="userSpaceOnUse" color-interpolation-filters="sRGB">
<feFlood flood-opacity="0" result="BackgroundImageFix"/>
<feColorMatrix in="SourceAlpha" type="matrix" values="0 0 0 0 0 0 0 0 0 0 0 0 0 0 0 0 0 0 127 0" result="hardAlpha"/>
<feOffset/>
<feGaussianBlur stdDeviation="11.515"/>
<feComposite in2="hardAlpha" operator="out"/>
<feColorMatrix type="matrix" values="0 0 0 0 0 0 0 0 0 0 0 0 0 0 0 0 0 0 0.15 0"/>
<feBlend mode="normal" in2="BackgroundImageFix" result="effect1_dropShadow_1_75"/>
<feBlend mode="normal" in="SourceGraphic" in2="effect1_dropShadow_1_75" result="shape"/>
</filter>
<linearGradient id="paint0_linear_1_75" x1="146.733" y1="66.0171" x2="146.733" y2="104.803" gradientUnits="userSpaceOnUse">
<stop stop-color="#9655CE"/>
<stop offset="1" stop-color="#9655CE" stop-opacity="0"/>
</linearGradient>
<linearGradient id="paint1_linear_1_75" x1="170.005" y1="66.0171" x2="149.475" y2="118.696" gradientUnits="userSpaceOnUse">
<stop stop-color="#025ADE"/>
<stop offset="1" stop-color="#619CF5"/>
</linearGradient>
<linearGradient id="paint2_linear_1_75" x1="146.733" y1="71.8351" x2="146.733" y2="89.2886" gradientUnits="userSpaceOnUse">
<stop stop-color="#9655CE"/>
<stop offset="1" stop-color="#9655CE" stop-opacity="0"/>
</linearGradient>
<linearGradient id="paint3_linear_1_75" x1="170.005" y1="71.8351" x2="165.359" y2="98.3261" gradientUnits="userSpaceOnUse">
<stop stop-color="#025ADE"/>
<stop offset="1" stop-color="#619CF5"/>
</linearGradient>
</defs>
</svg>
