<svg width="163" height="40" viewBox="0 0 163 40" fill="none" xmlns="http://www.w3.org/2000/svg">
<path d="M29.9363 15V22.7567C29.9363 23.2917 29.3875 23.3333 29.1048 23.3333C28.5146 23.3282 29.9403 23.1905 29.4374 23.5C28.9345 23.8095 29.6998 24.4703 29.4374 25L29.1048 26.5L27.9406 27.5C27.3593 27.582 26.8931 29.1214 26.4438 29.5C25.9944 29.8786 25.6263 30.9402 25.4459 31.5C25.2655 32.0598 24.8035 31.9296 24.9469 32.5C25.0904 33.0704 25.0223 33.0927 25.4459 33.5L26.9427 35H22.9512L22.4988 35H9.97879C9.30106 35.0969 8.61013 35.0344 7.96068 34.8174C7.31123 34.6004 6.72111 34.2348 6.23703 33.7497C5.75295 33.2646 5.3882 32.6732 5.17165 32.0224C4.95511 31.3716 4.89271 30.6792 4.98941 30V10C4.89271 9.32083 4.95511 8.62842 5.17165 7.97759C5.3882 7.32677 5.75295 6.73539 6.23703 6.25028C6.72111 5.76516 7.31123 5.39964 7.96068 5.18263C8.61013 4.96563 9.30106 4.9031 9.97879 5H19.9576V10C19.8609 10.6792 19.9233 11.3716 20.1398 12.0224C20.3563 12.6732 20.7211 13.2646 21.2052 13.7497C21.6893 14.2348 22.2794 14.6004 22.9288 14.8174C23.5783 15.0344 24.2692 15.0969 24.9469 15H29.9363Z" fill="#DEEEFF"/>
<path d="M24.947 15H29.9364L19.9576 5V10C19.8609 10.6792 19.9233 11.3716 20.1398 12.0224C20.3564 12.6732 20.7211 13.2646 21.2052 13.7497C21.6893 14.2348 22.2794 14.6004 22.9289 14.8174C23.5783 15.0344 24.2692 15.0969 24.947 15ZM11.8914 20C11.8914 20.2472 11.8183 20.4889 11.6812 20.6945C11.5441 20.9 11.3493 21.0602 11.1214 21.1548C10.8935 21.2495 10.6427 21.2742 10.4007 21.226C10.1588 21.1777 9.93651 21.0587 9.76207 20.8839C9.58762 20.7091 9.46883 20.4863 9.4207 20.2439C9.37257 20.0014 9.39727 19.7501 9.49168 19.5216C9.58609 19.2932 9.74596 19.098 9.95109 18.9607C10.1562 18.8233 10.3974 18.75 10.6441 18.75C10.9749 18.75 11.2922 18.8817 11.5261 19.1161C11.76 19.3505 11.8914 19.6685 11.8914 20ZM23.5333 20C23.5333 19.6685 23.4019 19.3505 23.168 19.1161C22.9341 18.8817 22.6168 18.75 22.286 18.75H14.8019C14.4711 18.75 14.1538 18.8817 13.9199 19.1161C13.686 19.3505 13.5545 19.6685 13.5545 20C13.5545 20.3315 13.686 20.6495 13.9199 20.8839C14.1538 21.1183 14.4711 21.25 14.8019 21.25H22.286C22.6168 21.25 22.9341 21.1183 23.168 20.8839C23.4019 20.6495 23.5333 20.3315 23.5333 20Z" fill="#025ADE"/>
<path d="M11.6812 25.6945C11.8183 25.4889 11.8914 25.2472 11.8914 25C11.8914 24.6685 11.76 24.3505 11.5261 24.1161C11.2922 23.8817 10.9749 23.75 10.6441 23.75C10.3974 23.75 10.1562 23.8233 9.95109 23.9607C9.74596 24.098 9.58609 24.2932 9.49168 24.5216C9.39727 24.7501 9.37257 25.0014 9.4207 25.2439C9.46883 25.4863 9.58762 25.7091 9.76207 25.8839C9.93651 26.0587 10.1588 26.1777 10.4007 26.226C10.6427 26.2742 10.8935 26.2495 11.1214 26.1548C11.3493 26.0602 11.5441 25.9 11.6812 25.6945Z" fill="#025ADE"/>
<path d="M18.1786 24.1161C18.4125 24.3505 18.5439 24.6685 18.5439 25C18.5439 25.3315 18.4125 25.6495 18.1786 25.8839C17.9447 26.1183 17.6274 26.25 17.2966 26.25H14.8019C14.4711 26.25 14.1538 26.1183 13.9199 25.8839C13.686 25.6495 13.5545 25.3315 13.5545 25C13.5545 24.6685 13.686 24.3505 13.9199 24.1161C14.1538 23.8817 14.4711 23.75 14.8019 23.75H17.2966C17.6274 23.75 17.9447 23.8817 18.1786 24.1161Z" fill="#025ADE"/>
<path d="M32.7244 27.7414L32.7217 27.7407L20.0072 28.3577L20.2238 29.1192L20.0058 28.3581L20.0061 28.358C19.7579 28.4289 19.5397 28.5788 19.3844 28.7847C19.2289 28.9909 19.145 29.242 19.145 29.5C19.145 29.758 19.2289 30.0091 19.3844 30.2153C19.5398 30.4213 19.7581 30.5713 20.0066 30.6421C20.0068 30.6421 20.007 30.6422 20.0072 30.6423L22.1593 31.2586L22.162 31.2593C23.0012 31.4964 23.7658 31.9454 24.3825 32.5635C24.9993 33.1816 25.4476 33.9481 25.6844 34.7898L25.6852 34.7925L26.3002 36.9492C26.3003 36.9494 26.3003 36.9496 26.3004 36.9498C26.3708 37.1978 26.52 37.4164 26.7258 37.5723C26.9318 37.7283 27.1832 37.8129 27.4419 37.8129C27.7005 37.8129 27.9519 37.7283 28.158 37.5723C28.3638 37.4164 28.513 37.1978 28.5834 36.9498C28.5835 36.9496 28.5835 36.9494 28.5836 36.9492L29.1986 34.7925L29.1993 34.7898C29.4361 33.9481 29.8845 33.1816 30.5012 32.5635C31.118 31.9454 31.8826 31.4964 32.7217 31.2593L32.7244 31.2586L34.8766 30.6423C34.8768 30.6422 34.8771 30.6421 34.8773 30.642C35.1257 30.5712 35.344 30.4213 35.4994 30.2153C35.6548 30.0091 35.7388 29.758 35.7388 29.5C35.7388 29.242 35.6548 28.9909 35.4994 28.7847C35.344 28.5787 35.1257 28.4288 34.8773 28.358C34.8771 28.3579 34.8768 28.3578 34.8766 28.3577L32.7244 27.7414Z" fill="#025ADE" stroke="white" stroke-width="1.58333"/>
<path d="M114.67 15.376C116.346 15.376 117.575 15.728 118.358 16.432C119.14 17.12 119.531 18.216 119.531 19.72V27.712H116.873V20.08C116.873 18.448 115.947 17.632 114.095 17.632C113.265 17.632 112.506 17.84 111.82 18.256C111.947 18.768 112.011 19.256 112.011 19.72V27.712H109.353V20.08C109.353 18.448 108.427 17.632 106.575 17.632C106.176 17.632 105.761 17.688 105.329 17.8C104.898 17.896 104.499 18.032 104.132 18.208V27.712H101.474V16.672C102.176 16.288 103.054 15.976 104.108 15.736C105.178 15.496 106.192 15.376 107.15 15.376C108.714 15.376 109.888 15.68 110.67 16.288C111.915 15.68 113.249 15.376 114.67 15.376Z" fill="#15173A"/>
<path d="M128.234 28.072C126.302 28.072 124.849 27.528 123.875 26.44C122.901 25.352 122.415 23.76 122.415 21.664C122.415 19.536 122.893 17.952 123.851 16.912C124.825 15.856 126.278 15.328 128.21 15.328C130.158 15.328 131.619 15.864 132.593 16.936C133.583 18.008 134.078 19.584 134.078 21.664C134.078 23.712 133.567 25.296 132.545 26.416C131.539 27.52 130.102 28.072 128.234 28.072ZM128.21 25.84C129.28 25.84 130.086 25.488 130.629 24.784C131.172 24.08 131.443 23.04 131.443 21.664C131.443 20.272 131.18 19.24 130.653 18.568C130.126 17.88 129.312 17.536 128.21 17.536C127.124 17.536 126.318 17.872 125.791 18.544C125.28 19.216 125.025 20.256 125.025 21.664C125.025 23.072 125.288 24.12 125.815 24.808C126.342 25.496 127.14 25.84 128.21 25.84Z" fill="#15173A"/>
<path d="M136.93 16.576C137.648 16.208 138.478 15.92 139.42 15.712C140.362 15.488 141.304 15.376 142.246 15.376C144.098 15.376 145.439 15.728 146.27 16.432C147.116 17.12 147.539 18.216 147.539 19.72V27.712H144.905V20.128C144.905 19.312 144.673 18.704 144.21 18.304C143.763 17.888 143.108 17.68 142.246 17.68C141.831 17.68 141.384 17.744 140.905 17.872C140.426 18 139.987 18.16 139.588 18.352V27.712H136.93V16.576Z" fill="#15173A"/>
<path d="M157.235 28.408C156.692 29.8 156.078 30.792 155.391 31.384C154.72 31.992 153.93 32.296 153.02 32.296C152.589 32.296 152.038 32.216 151.368 32.056L151.871 29.728C152.19 29.808 152.453 29.848 152.661 29.848C153.172 29.848 153.603 29.664 153.954 29.296C154.305 28.944 154.609 28.376 154.864 27.592L150.002 15.64H152.996L156.181 24.52L159.343 15.64H162.145L157.235 28.408Z" fill="#15173A"/>
<path d="M114.67 15.376C116.346 15.376 117.575 15.728 118.358 16.432C119.14 17.12 119.531 18.216 119.531 19.72V27.712H116.873V20.08C116.873 18.448 115.947 17.632 114.095 17.632C113.265 17.632 112.506 17.84 111.82 18.256C111.947 18.768 112.011 19.256 112.011 19.72V27.712H109.353V20.08C109.353 18.448 108.427 17.632 106.575 17.632C106.176 17.632 105.761 17.688 105.329 17.8C104.898 17.896 104.499 18.032 104.132 18.208V27.712H101.474V16.672C102.176 16.288 103.054 15.976 104.108 15.736C105.178 15.496 106.192 15.376 107.15 15.376C108.714 15.376 109.888 15.68 110.67 16.288C111.915 15.68 113.249 15.376 114.67 15.376Z" stroke="#15173A"/>
<path d="M128.234 28.072C126.302 28.072 124.849 27.528 123.875 26.44C122.901 25.352 122.415 23.76 122.415 21.664C122.415 19.536 122.893 17.952 123.851 16.912C124.825 15.856 126.278 15.328 128.21 15.328C130.158 15.328 131.619 15.864 132.593 16.936C133.583 18.008 134.078 19.584 134.078 21.664C134.078 23.712 133.567 25.296 132.545 26.416C131.539 27.52 130.102 28.072 128.234 28.072ZM128.21 25.84C129.28 25.84 130.086 25.488 130.629 24.784C131.172 24.08 131.443 23.04 131.443 21.664C131.443 20.272 131.18 19.24 130.653 18.568C130.126 17.88 129.312 17.536 128.21 17.536C127.124 17.536 126.318 17.872 125.791 18.544C125.28 19.216 125.025 20.256 125.025 21.664C125.025 23.072 125.288 24.12 125.815 24.808C126.342 25.496 127.14 25.84 128.21 25.84Z" stroke="#15173A"/>
<path d="M136.93 16.576C137.648 16.208 138.478 15.92 139.42 15.712C140.362 15.488 141.304 15.376 142.246 15.376C144.098 15.376 145.439 15.728 146.27 16.432C147.116 17.12 147.539 18.216 147.539 19.72V27.712H144.905V20.128C144.905 19.312 144.673 18.704 144.21 18.304C143.763 17.888 143.108 17.68 142.246 17.68C141.831 17.68 141.384 17.744 140.905 17.872C140.426 18 139.987 18.16 139.588 18.352V27.712H136.93V16.576Z" stroke="#15173A"/>
<path d="M157.235 28.408C156.692 29.8 156.078 30.792 155.391 31.384C154.72 31.992 153.93 32.296 153.02 32.296C152.589 32.296 152.038 32.216 151.368 32.056L151.871 29.728C152.19 29.808 152.453 29.848 152.661 29.848C153.172 29.848 153.603 29.664 153.954 29.296C154.305 28.944 154.609 28.376 154.864 27.592L150.002 15.64H152.996L156.181 24.52L159.343 15.64H162.145L157.235 28.408Z" stroke="#15173A"/>
<path d="M53.0998 11.704C54.8081 11.704 56.1093 12.112 57.0034 12.928C57.8975 13.744 58.3446 14.952 58.3446 16.552C58.3446 17.704 58.0333 18.712 57.4106 19.576C56.7879 20.44 55.9417 21 54.872 21.256L59.111 27.712H55.7341L52.0699 21.712H48.7171V27.712H45.915V11.704H53.0998ZM52.3813 19.48C54.377 19.48 55.3749 18.56 55.3749 16.72C55.3749 14.912 54.5048 14.008 52.7645 14.008H48.7171V19.48H52.3813Z" fill="#025ADE"/>
<path d="M66.9644 28.072C65.2241 28.072 63.8271 27.528 62.7733 26.44C61.7355 25.336 61.2166 23.776 61.2166 21.76C61.2166 19.696 61.7036 18.112 62.6775 17.008C63.6514 15.888 65.0405 15.328 66.8446 15.328C68.6807 15.328 70.0458 15.928 70.9399 17.128C71.85 18.312 72.289 20.032 72.2571 22.288H63.8989C63.8829 23.408 64.1464 24.28 64.6892 24.904C65.248 25.528 66.0064 25.84 66.9644 25.84C67.5871 25.84 68.2337 25.752 68.9042 25.576C69.5908 25.384 70.2534 25.136 70.892 24.832L71.7063 26.92C70.9559 27.272 70.1656 27.552 69.3353 27.76C68.5051 27.968 67.7148 28.072 66.9644 28.072ZM69.5748 20.368C69.479 19.376 69.2076 18.648 68.7606 18.184C68.3135 17.72 67.6509 17.488 66.7728 17.488C65.9266 17.488 65.272 17.712 64.809 18.16C64.3459 18.608 64.0506 19.344 63.9228 20.368H69.5748Z" fill="#025ADE"/>
<path d="M79.7696 20.584C80.5679 20.824 81.2225 21.072 81.7335 21.328C82.2603 21.568 82.6914 21.928 83.0267 22.408C83.3779 22.872 83.5536 23.488 83.5536 24.256C83.5536 25.472 83.0826 26.416 82.1406 27.088C81.2146 27.744 80.0171 28.072 78.5482 28.072C77.239 28.072 75.818 27.696 74.2853 26.944L75.0996 24.928C75.6584 25.216 76.2411 25.448 76.8478 25.624C77.4546 25.8 78.0213 25.888 78.5482 25.888C79.2348 25.888 79.7696 25.768 80.1528 25.528C80.552 25.272 80.7515 24.928 80.7515 24.496C80.7515 24.064 80.552 23.728 80.1528 23.488C79.7537 23.232 79.115 22.984 78.2369 22.744C77.1033 22.424 76.2172 22 75.5785 21.472C74.9559 20.928 74.6445 20.144 74.6445 19.12C74.6445 17.968 75.0676 17.064 75.9138 16.408C76.776 15.752 77.8856 15.424 79.2427 15.424C80.552 15.424 81.9729 15.792 83.5057 16.528L82.6914 18.544C82.1645 18.272 81.5898 18.048 80.9671 17.872C80.3604 17.696 79.7856 17.608 79.2427 17.608C78.7159 17.608 78.2688 17.728 77.9016 17.968C77.5344 18.208 77.3508 18.512 77.3508 18.88C77.3508 19.344 77.5344 19.688 77.9016 19.912C78.2688 20.12 78.8915 20.344 79.7696 20.584Z" fill="#025ADE"/>
<path d="M91.7142 28.072C90.0058 28.072 88.6807 27.656 87.7387 26.824C86.8126 25.992 86.3496 24.784 86.3496 23.2V15.64H89.008V22.864C89.008 23.872 89.2235 24.608 89.6546 25.072C90.0857 25.536 90.7722 25.768 91.7142 25.768C92.6562 25.768 93.3427 25.536 93.7738 25.072C94.2209 24.592 94.4444 23.856 94.4444 22.864V15.64H96.983V23.2C96.983 24.784 96.528 25.992 95.6179 26.824C94.7078 27.656 93.4066 28.072 91.7142 28.072Z" fill="#025ADE"/>
<path d="M53.0998 11.704C54.8081 11.704 56.1093 12.112 57.0034 12.928C57.8975 13.744 58.3446 14.952 58.3446 16.552C58.3446 17.704 58.0333 18.712 57.4106 19.576C56.7879 20.44 55.9417 21 54.872 21.256L59.111 27.712H55.7341L52.0699 21.712H48.7171V27.712H45.915V11.704H53.0998ZM52.3813 19.48C54.377 19.48 55.3749 18.56 55.3749 16.72C55.3749 14.912 54.5048 14.008 52.7645 14.008H48.7171V19.48H52.3813Z" stroke="#025ADE"/>
<path d="M66.9644 28.072C65.2241 28.072 63.8271 27.528 62.7733 26.44C61.7355 25.336 61.2166 23.776 61.2166 21.76C61.2166 19.696 61.7036 18.112 62.6775 17.008C63.6514 15.888 65.0405 15.328 66.8446 15.328C68.6807 15.328 70.0458 15.928 70.9399 17.128C71.85 18.312 72.289 20.032 72.2571 22.288H63.8989C63.8829 23.408 64.1464 24.28 64.6892 24.904C65.248 25.528 66.0064 25.84 66.9644 25.84C67.5871 25.84 68.2337 25.752 68.9042 25.576C69.5908 25.384 70.2534 25.136 70.892 24.832L71.7063 26.92C70.9559 27.272 70.1656 27.552 69.3353 27.76C68.5051 27.968 67.7148 28.072 66.9644 28.072ZM69.5748 20.368C69.479 19.376 69.2076 18.648 68.7606 18.184C68.3135 17.72 67.6509 17.488 66.7728 17.488C65.9266 17.488 65.272 17.712 64.809 18.16C64.3459 18.608 64.0506 19.344 63.9228 20.368H69.5748Z" stroke="#025ADE"/>
<path d="M79.7696 20.584C80.5679 20.824 81.2225 21.072 81.7335 21.328C82.2603 21.568 82.6914 21.928 83.0267 22.408C83.3779 22.872 83.5536 23.488 83.5536 24.256C83.5536 25.472 83.0826 26.416 82.1406 27.088C81.2146 27.744 80.0171 28.072 78.5482 28.072C77.239 28.072 75.818 27.696 74.2853 26.944L75.0996 24.928C75.6584 25.216 76.2411 25.448 76.8478 25.624C77.4546 25.8 78.0213 25.888 78.5482 25.888C79.2348 25.888 79.7696 25.768 80.1528 25.528C80.552 25.272 80.7515 24.928 80.7515 24.496C80.7515 24.064 80.552 23.728 80.1528 23.488C79.7537 23.232 79.115 22.984 78.2369 22.744C77.1033 22.424 76.2172 22 75.5785 21.472C74.9559 20.928 74.6445 20.144 74.6445 19.12C74.6445 17.968 75.0676 17.064 75.9138 16.408C76.776 15.752 77.8856 15.424 79.2427 15.424C80.552 15.424 81.9729 15.792 83.5057 16.528L82.6914 18.544C82.1645 18.272 81.5898 18.048 80.9671 17.872C80.3604 17.696 79.7856 17.608 79.2427 17.608C78.7159 17.608 78.2688 17.728 77.9016 17.968C77.5344 18.208 77.3508 18.512 77.3508 18.88C77.3508 19.344 77.5344 19.688 77.9016 19.912C78.2688 20.12 78.8915 20.344 79.7696 20.584Z" stroke="#025ADE"/>
<path d="M91.7142 28.072C90.0058 28.072 88.6807 27.656 87.7387 26.824C86.8126 25.992 86.3496 24.784 86.3496 23.2V15.64H89.008V22.864C89.008 23.872 89.2235 24.608 89.6546 25.072C90.0857 25.536 90.7722 25.768 91.7142 25.768C92.6562 25.768 93.3427 25.536 93.7738 25.072C94.2209 24.592 94.4444 23.856 94.4444 22.864V15.64H96.983V23.2C96.983 24.784 96.528 25.992 95.6179 26.824C94.7078 27.656 93.4066 28.072 91.7142 28.072Z" stroke="#025ADE"/>
</svg>
